<svg version="1.1" preserveAspectRatio="none" xmlns="http://www.w3.org/2000/svg" width="500" height="500" viewBox="0 0 500 500"><rect width="100%" height="100%" fill="#232128" fill-opacity="1"/><svg viewBox="24.5453 209.7908 521.651 101" width="333" height="64.47414075694287" x="83.5px" y="217.7629px" xmlns="http://www.w3.org/2000/svg" xmlns:xlink="http://www.w3.org/1999/xlink" preserveAspectRatio="none"><defs></defs><style>.companyName {fill:#A5AEAD;fill-opacity:1;}.icon1 {fill:#A4747F;fill-opacity:1;}.icon2 {fill:#8CA6A2;fill-opacity:1;}.icon3 {fill:#5E718C;fill-opacity:1;}.icon3-str {stroke:#5E718C;stroke-opacity:1;}.text {fill:#A5AEAD;fill-opacity:1;}</style><g opacity="1" transform="rotate(0 72.5843 209.7908)">
<svg width="61.7581" height="50" x="72.5843" y="209.7908" version="1.1" preserveAspectRatio="none" viewBox="7.0379157066345215 15.214244842529297 85.92615509033203 69.56675720214844">
  <g transform="matrix(1 0 0 1 0 0)" class="icon1"><path d="m52.148 31.547c0.39844-1.0273 1.5586-1.5312 2.5859-1.1328 1.0273 0.39844 1.5312 1.5586 1.1328 2.5859l-8.0117 20.422c-0.39844 1.0273-1.5586 1.5312-2.5859 1.1328-1.0273-0.39844-1.5312-1.5586-1.1328-2.5859zm-16.363 53.234c-1.1055 0-2-0.89453-2-2s0.89453-2 2-2h8.2031v-7.0352h12.027v7.0352h8.2031c1.1055 0 2 0.89453 2 2s-0.89453 2-2 2zm27.074-50.02c-0.80859-0.75-0.85156-2.0117-0.10156-2.8203s2.0117-0.85156 2.8203-0.10156l9.8672 9.1836c0.80859 0.75 0.85156 2.0117 0.10156 2.8203l-9.9648 9.2812c-0.80859 0.75-2.0703 0.70312-2.8203-0.10156-0.75-0.80859-0.70312-2.0703 0.10156-2.8203l8.2969-7.7227-8.2969-7.7227zm-28.438-2.9219c0.80859-0.75 2.0703-0.70312 2.8203 0.10156 0.75 0.80859 0.70312 2.0703-0.10156 2.8203l-8.2969 7.7227 8.2969 7.7227c0.80859 0.75 0.85156 2.0117 0.10156 2.8203s-2.0117 0.85156-2.8203 0.10156l-9.9648-9.2812c-0.75-0.80859-0.70312-2.0703 0.10156-2.8203l9.8672-9.1836zm56.254-16.621h-81.348c-0.62891 0-1.1992 0.25781-1.6133 0.67188-0.41406 0.41406-0.67578 0.98828-0.67578 1.6133v49.949c0 0.62891 0.26172 1.1992 0.67578 1.6133 0.41406 0.41406 0.98828 0.67188 1.6133 0.67188h81.348c0.62891 0 1.1992-0.25781 1.6133-0.67188 0.42188-0.41016 0.67578-0.98438 0.67578-1.6133v-49.949c0-0.58984-0.22656-1.1328-0.63281-1.5742-0.45703-0.45703-1.0273-0.71484-1.6562-0.71484z"></path></g>
</svg>
</g><g opacity="1" transform="rotate(0 24.5453 289.7908)">
<svg width="521.651" height="21" x="24.5453" y="289.7908" version="1.1" preserveAspectRatio="none" viewBox="4.56 -29.88 939.96 37.84">
  <g transform="matrix(1 0 0 1 0 0)" class="text"><path id="id-6izo4zJp38" d="M4.56 0L4.56-28L7.52-28L7.52 0L4.56 0Z M27-27.48Q25.16-27.48 24.22-26.48Q23.28-25.48 23.28-23.52L23.28-23.52L23.28-21.04L29.76-21.04L29.76-18.64L23.36-18.64L23.36 0L20.52 0L20.52-18.64L16.76-18.64L16.76-21.04L20.52-21.04L20.52-23.64Q20.52-26.52 22.18-28.20Q23.84-29.88 26.88-29.88L26.88-29.88Q28.08-29.88 29.20-29.54Q30.32-29.20 31.08-28.56L31.08-28.56L30.12-26.44Q28.88-27.48 27-27.48L27-27.48Z M73.48-28L62.28-9.68L62.28 0L59.36 0L59.36-9.68L48.16-28L51.32-28L60.92-12.28L70.52-28L73.48-28Z M87.68 0.20Q84.64 0.20 82.20-1.18Q79.76-2.56 78.36-5Q76.96-7.44 76.96-10.52L76.96-10.52Q76.96-13.60 78.36-16.04Q79.76-18.48 82.20-19.84Q84.64-21.20 87.68-21.20L87.68-21.20Q90.72-21.20 93.16-19.84Q95.60-18.48 96.98-16.04Q98.36-13.60 98.36-10.52L98.36-10.52Q98.36-7.44 96.98-5Q95.60-2.56 93.16-1.18Q90.72 0.20 87.68 0.20L87.68 0.20ZM87.68-2.32Q89.92-2.32 91.70-3.34Q93.48-4.36 94.48-6.24Q95.48-8.12 95.48-10.52L95.48-10.52Q95.48-12.92 94.48-14.80Q93.48-16.68 91.70-17.70Q89.92-18.72 87.68-18.72L87.68-18.72Q85.44-18.72 83.66-17.70Q81.88-16.68 80.86-14.80Q79.84-12.92 79.84-10.52L79.84-10.52Q79.84-8.12 80.86-6.24Q81.88-4.36 83.66-3.34Q85.44-2.32 87.68-2.32L87.68-2.32Z M124.28-21.04L127.12-21.04L127.12 0L124.40 0L124.40-3.84Q123.28-1.92 121.32-0.86Q119.36 0.20 116.84 0.20L116.84 0.20Q112.72 0.20 110.34-2.10Q107.96-4.40 107.96-8.84L107.96-8.84L107.96-21.04L110.80-21.04L110.80-9.12Q110.80-5.80 112.44-4.08Q114.08-2.36 117.12-2.36L117.12-2.36Q120.44-2.36 122.36-4.38Q124.28-6.40 124.28-10L124.28-10L124.28-21.04Z M154.16 0L154.16-28L165.56-28Q170-28 173.40-26.22Q176.80-24.44 178.68-21.26Q180.56-18.08 180.56-14L180.56-14Q180.56-9.92 178.68-6.74Q176.80-3.56 173.40-1.78Q170 0 165.56 0L165.56 0L154.16 0ZM157.12-2.56L165.40-2.56Q169.08-2.56 171.84-4.02Q174.60-5.48 176.12-8.06Q177.64-10.64 177.64-14L177.64-14Q177.64-17.36 176.12-19.94Q174.60-22.52 171.84-23.98Q169.08-25.44 165.40-25.44L165.40-25.44L157.12-25.44L157.12-2.56Z M199.20 0.20Q196.16 0.20 193.72-1.18Q191.28-2.56 189.88-5Q188.48-7.44 188.48-10.52L188.48-10.52Q188.48-13.60 189.88-16.04Q191.28-18.48 193.72-19.84Q196.16-21.20 199.20-21.20L199.20-21.20Q202.24-21.20 204.68-19.84Q207.12-18.48 208.50-16.04Q209.88-13.60 209.88-10.52L209.88-10.52Q209.88-7.44 208.50-5Q207.12-2.56 204.68-1.18Q202.24 0.20 199.20 0.20L199.20 0.20ZM199.20-2.32Q201.44-2.32 203.22-3.34Q205-4.36 206-6.24Q207-8.12 207-10.52L207-10.52Q207-12.92 206-14.80Q205-16.68 203.22-17.70Q201.44-18.72 199.20-18.72L199.20-18.72Q196.96-18.72 195.18-17.70Q193.40-16.68 192.38-14.80Q191.36-12.92 191.36-10.52L191.36-10.52Q191.36-8.12 192.38-6.24Q193.40-4.36 195.18-3.34Q196.96-2.32 199.20-2.32L199.20-2.32Z M255.24-28L258.16-28L258.16 0L255.72 0L237.72-22.72L237.72 0L234.76 0L234.76-28L237.20-28L255.24-5.28L255.24-28Z M279.28 0.20Q276.24 0.20 273.80-1.18Q271.36-2.56 269.96-5Q268.56-7.44 268.56-10.52L268.56-10.52Q268.56-13.60 269.96-16.04Q271.36-18.48 273.80-19.84Q276.24-21.20 279.28-21.20L279.28-21.20Q282.32-21.20 284.76-19.84Q287.20-18.48 288.58-16.04Q289.96-13.60 289.96-10.52L289.96-10.52Q289.96-7.44 288.58-5Q287.20-2.56 284.76-1.18Q282.32 0.20 279.28 0.20L279.28 0.20ZM279.28-2.32Q281.52-2.32 283.30-3.34Q285.08-4.36 286.08-6.24Q287.08-8.12 287.08-10.52L287.08-10.52Q287.08-12.92 286.08-14.80Q285.08-16.68 283.30-17.70Q281.52-18.72 279.28-18.72L279.28-18.72Q277.04-18.72 275.26-17.70Q273.48-16.68 272.46-14.80Q271.44-12.92 271.44-10.52L271.44-10.52Q271.44-8.12 272.46-6.24Q273.48-4.36 275.26-3.34Q277.04-2.32 279.28-2.32L279.28-2.32Z M309.84-3.32L310.84-1.28Q310.04-0.56 308.86-0.18Q307.68 0.20 306.40 0.20L306.40 0.20Q303.44 0.20 301.84-1.40Q300.24-3 300.24-5.92L300.24-5.92L300.24-18.64L296.48-18.64L296.48-21.04L300.24-21.04L300.24-25.64L303.08-25.64L303.08-21.04L309.48-21.04L309.48-18.64L303.08-18.64L303.08-6.08Q303.08-4.20 304.02-3.22Q304.96-2.24 306.72-2.24L306.72-2.24Q307.60-2.24 308.42-2.52Q309.24-2.80 309.84-3.32L309.84-3.32Z M330.72-21.20Q334.68-21.20 337.02-18.90Q339.36-16.60 339.36-12.20L339.36-12.20L339.36 0L336.52 0L336.52-11.92Q336.52-15.20 334.88-16.92Q333.24-18.64 330.20-18.64L330.20-18.64Q326.80-18.64 324.82-16.62Q322.84-14.60 322.84-11.04L322.84-11.04L322.84 0L320.00 0L320.00-29.68L322.84-29.68L322.84-17.36Q324.00-19.20 326.04-20.20Q328.08-21.20 330.72-21.20L330.72-21.20Z M351.08 0L351.08-21.04L353.92-21.04L353.92 0L351.08 0ZM352.52-25.64Q351.64-25.64 351.04-26.24Q350.44-26.84 350.44-27.68L350.44-27.68Q350.44-28.48 351.04-29.08Q351.64-29.68 352.52-29.68L352.52-29.68Q353.40-29.68 354.00-29.10Q354.60-28.52 354.60-27.72L354.60-27.72Q354.60-26.84 354.00-26.24Q353.40-25.64 352.52-25.64L352.52-25.64Z M376.56-21.20Q380.52-21.20 382.86-18.90Q385.20-16.60 385.20-12.20L385.20-12.20L385.20 0L382.36 0L382.36-11.92Q382.36-15.20 380.72-16.92Q379.08-18.64 376.04-18.64L376.04-18.64Q372.64-18.64 370.66-16.62Q368.68-14.60 368.68-11.04L368.68-11.04L368.68 0L365.84 0L365.84-21.04L368.56-21.04L368.56-17.16Q369.72-19.08 371.78-20.14Q373.84-21.20 376.56-21.20L376.56-21.20Z M413.76-21.04L416.48-21.04L416.48-2.56Q416.48 2.80 413.86 5.38Q411.24 7.96 405.96 7.96L405.96 7.96Q403.04 7.96 400.42 7.10Q397.80 6.24 396.16 4.72L396.16 4.72L397.60 2.56Q399.12 3.92 401.30 4.68Q403.48 5.44 405.88 5.44L405.88 5.44Q409.88 5.44 411.76 3.58Q413.64 1.72 413.64-2.20L413.64-2.20L413.64-4.88Q412.32-2.88 410.18-1.84Q408.04-0.80 405.44-0.80L405.44-0.80Q402.48-0.80 400.06-2.10Q397.64-3.40 396.26-5.74Q394.88-8.08 394.88-11.04L394.88-11.04Q394.88-14 396.26-16.32Q397.64-18.64 400.04-19.92Q402.44-21.20 405.44-21.20L405.44-21.20Q408.12-21.20 410.28-20.12Q412.44-19.04 413.76-17L413.76-17L413.76-21.04ZM405.72-3.32Q408.00-3.32 409.84-4.30Q411.68-5.28 412.70-7.04Q413.72-8.80 413.72-11.04L413.72-11.04Q413.72-13.28 412.70-15.02Q411.68-16.76 409.86-17.74Q408.04-18.72 405.72-18.72L405.72-18.72Q403.44-18.72 401.62-17.76Q399.80-16.80 398.78-15.04Q397.76-13.28 397.76-11.04L397.76-11.04Q397.76-8.80 398.78-7.04Q399.80-5.28 401.62-4.30Q403.44-3.32 405.72-3.32L405.72-3.32Z M443.24-4.16Q444.16-4.16 444.76-3.54Q445.36-2.92 445.36-2L445.36-2Q445.36-1.52 445.22-0.96Q445.08-0.40 444.80 0.32L444.80 0.32L443.12 5.84L441.20 5.84L442.56 0.04Q441.92-0.16 441.52-0.70Q441.12-1.24 441.12-2L441.12-2Q441.12-2.92 441.72-3.54Q442.32-4.16 443.24-4.16L443.24-4.16Z M476.48-28L479.40-28L479.40 0L476.96 0L458.96-22.72L458.96 0L456.00 0L456.00-28L458.44-28L476.48-5.28L476.48-28Z M500.52 0.20Q497.48 0.20 495.04-1.18Q492.60-2.56 491.20-5Q489.80-7.44 489.80-10.52L489.80-10.52Q489.80-13.60 491.20-16.04Q492.60-18.48 495.04-19.84Q497.48-21.20 500.52-21.20L500.52-21.20Q503.56-21.20 506.00-19.84Q508.44-18.48 509.82-16.04Q511.20-13.60 511.20-10.52L511.20-10.52Q511.20-7.44 509.82-5Q508.44-2.56 506.00-1.18Q503.56 0.20 500.52 0.20L500.52 0.20ZM500.52-2.32Q502.76-2.32 504.54-3.34Q506.32-4.36 507.32-6.24Q508.32-8.12 508.32-10.52L508.32-10.52Q508.32-12.92 507.32-14.80Q506.32-16.68 504.54-17.70Q502.76-18.72 500.52-18.72L500.52-18.72Q498.28-18.72 496.50-17.70Q494.72-16.68 493.70-14.80Q492.68-12.92 492.68-10.52L492.68-10.52Q492.68-8.12 493.70-6.24Q494.72-4.36 496.50-3.34Q498.28-2.32 500.52-2.32L500.52-2.32Z M531.08-3.32L532.08-1.28Q531.28-0.56 530.10-0.18Q528.92 0.20 527.64 0.20L527.64 0.20Q524.68 0.20 523.08-1.40Q521.48-3 521.48-5.92L521.48-5.92L521.48-18.64L517.72-18.64L517.72-21.04L521.48-21.04L521.48-25.64L524.32-25.64L524.32-21.04L530.72-21.04L530.72-18.64L524.32-18.64L524.32-6.08Q524.32-4.20 525.26-3.22Q526.20-2.24 527.96-2.24L527.96-2.24Q528.84-2.24 529.66-2.52Q530.48-2.80 531.08-3.32L531.08-3.32Z M551.96-21.20Q555.92-21.20 558.26-18.90Q560.60-16.60 560.60-12.20L560.60-12.20L560.60 0L557.76 0L557.76-11.92Q557.76-15.20 556.12-16.92Q554.48-18.64 551.44-18.64L551.44-18.64Q548.04-18.64 546.06-16.62Q544.08-14.60 544.08-11.04L544.08-11.04L544.08 0L541.24 0L541.24-29.68L544.08-29.68L544.08-17.36Q545.24-19.20 547.28-20.20Q549.32-21.20 551.96-21.20L551.96-21.20Z M572.32 0L572.32-21.04L575.16-21.04L575.16 0L572.32 0ZM573.76-25.64Q572.88-25.64 572.28-26.24Q571.68-26.84 571.68-27.68L571.68-27.68Q571.68-28.48 572.28-29.08Q572.88-29.68 573.76-29.68L573.76-29.68Q574.64-29.68 575.24-29.10Q575.84-28.52 575.84-27.72L575.84-27.72Q575.84-26.84 575.24-26.24Q574.64-25.64 573.76-25.64L573.76-25.64Z M597.80-21.20Q601.76-21.20 604.10-18.90Q606.44-16.60 606.44-12.20L606.44-12.20L606.44 0L603.60 0L603.60-11.92Q603.60-15.20 601.96-16.92Q600.32-18.64 597.28-18.64L597.28-18.64Q593.88-18.64 591.90-16.62Q589.92-14.60 589.92-11.04L589.92-11.04L589.92 0L587.08 0L587.08-21.04L589.80-21.04L589.80-17.16Q590.96-19.08 593.02-20.14Q595.08-21.20 597.80-21.20L597.80-21.20Z M635.00-21.04L637.72-21.04L637.72-2.56Q637.72 2.80 635.10 5.38Q632.48 7.96 627.20 7.96L627.20 7.96Q624.28 7.96 621.66 7.10Q619.04 6.24 617.40 4.72L617.40 4.72L618.84 2.56Q620.36 3.92 622.54 4.68Q624.72 5.44 627.12 5.44L627.12 5.44Q631.12 5.44 633.00 3.58Q634.88 1.72 634.88-2.20L634.88-2.20L634.88-4.88Q633.56-2.88 631.42-1.84Q629.28-0.80 626.68-0.80L626.68-0.80Q623.72-0.80 621.30-2.10Q618.88-3.40 617.50-5.74Q616.12-8.08 616.12-11.04L616.12-11.04Q616.12-14 617.50-16.32Q618.88-18.64 621.28-19.92Q623.68-21.20 626.68-21.20L626.68-21.20Q629.36-21.20 631.52-20.12Q633.68-19.04 635.00-17L635.00-17L635.00-21.04ZM626.96-3.32Q629.24-3.32 631.08-4.30Q632.92-5.28 633.94-7.04Q634.96-8.80 634.96-11.04L634.96-11.04Q634.96-13.28 633.94-15.02Q632.92-16.76 631.10-17.74Q629.28-18.72 626.96-18.72L626.96-18.72Q624.68-18.72 622.86-17.76Q621.04-16.80 620.02-15.04Q619.00-13.28 619.00-11.04L619.00-11.04Q619.00-8.80 620.02-7.04Q621.04-5.28 622.86-4.30Q624.68-3.32 626.96-3.32L626.96-3.32Z M700.36-28L703.20-28L693.76 0L690.64 0L682.44-23.88L674.20 0L671.12 0L661.68-28L664.72-28L672.80-3.92L681.16-28L683.92-28L692.16-3.80L700.36-28Z M711.88 0L711.88-21.04L714.72-21.04L714.72 0L711.88 0ZM713.32-25.64Q712.44-25.64 711.84-26.24Q711.24-26.84 711.24-27.68L711.24-27.68Q711.24-28.48 711.84-29.08Q712.44-29.68 713.32-29.68L713.32-29.68Q714.20-29.68 714.80-29.10Q715.40-28.52 715.40-27.72L715.40-27.72Q715.40-26.84 714.80-26.24Q714.20-25.64 713.32-25.64L713.32-25.64Z M726.64 0L726.64-29.68L729.48-29.68L729.48 0L726.64 0Z M741.40 0L741.40-29.68L744.24-29.68L744.24 0L741.40 0Z M791.72-28L794.64-28L794.64 0L791.72 0L791.72-12.92L774.20-12.92L774.20 0L771.24 0L771.24-28L774.20-28L774.20-15.52L791.72-15.52L791.72-28Z M814.52-21.20Q818.64-21.20 820.84-19.14Q823.04-17.08 823.04-13.04L823.04-13.04L823.04 0L820.32 0L820.32-3.28Q819.36-1.64 817.50-0.72Q815.64 0.20 813.08 0.20L813.08 0.20Q809.56 0.20 807.48-1.48Q805.40-3.16 805.40-5.92L805.40-5.92Q805.40-8.60 807.34-10.24Q809.28-11.88 813.52-11.88L813.52-11.88L820.20-11.88L820.20-13.16Q820.20-15.88 818.68-17.30Q817.16-18.72 814.24-18.72L814.24-18.72Q812.24-18.72 810.40-18.06Q808.56-17.40 807.24-16.24L807.24-16.24L805.96-18.36Q807.56-19.72 809.80-20.46Q812.04-21.20 814.52-21.20L814.52-21.20ZM813.52-2.04Q815.92-2.04 817.64-3.14Q819.36-4.24 820.20-6.32L820.20-6.32L820.20-9.76L813.60-9.76Q808.20-9.76 808.20-6L808.20-6Q808.20-4.16 809.60-3.10Q811-2.04 813.52-2.04L813.52-2.04Z M845.60-21.20Q848.56-21.20 850.96-19.86Q853.36-18.52 854.72-16.08Q856.08-13.64 856.08-10.52L856.08-10.52Q856.08-7.36 854.72-4.92Q853.36-2.48 850.98-1.14Q848.60 0.20 845.60 0.20L845.60 0.20Q843.04 0.20 840.98-0.86Q838.92-1.92 837.60-3.96L837.60-3.96L837.60 7.76L834.76 7.76L834.76-21.04L837.48-21.04L837.48-16.88Q838.76-18.96 840.86-20.08Q842.96-21.20 845.60-21.20L845.60-21.20ZM845.40-2.32Q847.60-2.32 849.40-3.34Q851.20-4.36 852.22-6.24Q853.24-8.12 853.24-10.52L853.24-10.52Q853.24-12.92 852.22-14.78Q851.20-16.64 849.40-17.68Q847.60-18.72 845.40-18.72L845.40-18.72Q843.16-18.72 841.38-17.68Q839.60-16.64 838.58-14.78Q837.56-12.92 837.56-10.52L837.56-10.52Q837.56-8.12 838.58-6.24Q839.60-4.36 841.38-3.34Q843.16-2.32 845.40-2.32L845.40-2.32Z M876.72-21.20Q879.68-21.20 882.08-19.86Q884.48-18.52 885.84-16.08Q887.20-13.64 887.20-10.52L887.20-10.52Q887.20-7.36 885.84-4.92Q884.48-2.48 882.10-1.14Q879.72 0.20 876.72 0.20L876.72 0.20Q874.16 0.20 872.10-0.86Q870.04-1.92 868.72-3.96L868.72-3.96L868.72 7.76L865.88 7.76L865.88-21.04L868.60-21.04L868.60-16.88Q869.88-18.96 871.98-20.08Q874.08-21.20 876.72-21.20L876.72-21.20ZM876.52-2.32Q878.72-2.32 880.52-3.34Q882.32-4.36 883.34-6.24Q884.36-8.12 884.36-10.52L884.36-10.52Q884.36-12.92 883.34-14.78Q882.32-16.64 880.52-17.68Q878.72-18.72 876.52-18.72L876.52-18.72Q874.28-18.72 872.50-17.68Q870.72-16.64 869.70-14.78Q868.68-12.92 868.68-10.52L868.68-10.52Q868.68-8.12 869.70-6.24Q870.72-4.36 872.50-3.34Q874.28-2.32 876.52-2.32L876.52-2.32Z M915.36-10.52L915.32-9.64L897.72-9.64Q897.96-6.36 900.24-4.34Q902.52-2.32 906.00-2.32L906.00-2.32Q907.96-2.32 909.60-3.02Q911.24-3.72 912.44-5.08L912.44-5.08L914.04-3.24Q912.64-1.56 910.54-0.68Q908.44 0.20 905.92 0.20L905.92 0.20Q902.68 0.20 900.18-1.18Q897.68-2.56 896.28-5Q894.88-7.44 894.88-10.52L894.88-10.52Q894.88-13.60 896.22-16.04Q897.56-18.48 899.90-19.84Q902.24-21.20 905.16-21.20L905.16-21.20Q908.08-21.20 910.40-19.84Q912.72-18.48 914.04-16.06Q915.36-13.64 915.36-10.52L915.36-10.52ZM905.16-18.76Q902.12-18.76 900.06-16.82Q898.00-14.88 897.72-11.76L897.72-11.76L912.64-11.76Q912.36-14.88 910.30-16.82Q908.24-18.76 905.16-18.76L905.16-18.76Z M935.88-21.20Q939.84-21.20 942.18-18.90Q944.52-16.60 944.52-12.20L944.52-12.20L944.52 0L941.68 0L941.68-11.92Q941.68-15.20 940.04-16.92Q938.40-18.64 935.36-18.64L935.36-18.64Q931.96-18.64 929.98-16.62Q928-14.60 928-11.04L928-11.04L928 0L925.16 0L925.16-21.04L927.88-21.04L927.88-17.16Q929.04-19.08 931.10-20.14Q933.16-21.20 935.88-21.20L935.88-21.20Z"/></g>
</svg>
</g><g opacity="1" transform="rotate(0 152.3424 209.7908)">
<svg width="345.8149" height="50" x="152.3424" y="209.7908" version="1.1" preserveAspectRatio="none" viewBox="1.6602 -28.0273 198.4375 28.691300000000002">
  <g transform="matrix(1 0 0 1 0 0)" class="companyName"><path id="id-D6z1nYkh8" d="M3.65-24.82L3.65-25.33Q3.65-26.46 4.54-27.25Q5.43-28.03 6.46-28.03L6.46-28.03L7.09-28.03Q7.38-27.97 7.58-27.97L7.58-27.97Q8.52-27.97 9.24-27.13Q9.96-26.29 9.96-25.53L9.96-25.53L9.96-25.02Q9.92-24.82 9.92-24.73L9.92-24.73Q9.92-23.91 9.00-23.13Q8.09-22.34 6.97-22.34L6.97-22.34L6.37-22.34Q5.27-22.34 4.48-23.04Q3.69-23.73 3.69-24.63L3.69-24.63L3.65-24.82ZM7.36 0.08L7.36 0.08L5.51 0.08Q2.91 0.08 2.39-0.07Q1.88-0.21 1.88-0.91Q1.88-1.60 2.85-2.58Q3.83-3.55 4.08-4.54Q4.34-5.53 4.34-9.68Q4.34-13.83 4.12-14.57Q3.91-15.31 2.78-15.85Q1.66-16.39 1.66-17.14Q1.66-17.89 2.70-18.24L2.70-18.24Q5.04-19.02 7.87-19.02L7.87-19.02L8.16-19.02Q9.30-19.02 9.47-18.07L9.47-18.07Q9.57-17.52 9.57-11.51Q9.57-5.51 9.83-4.48Q10.10-3.46 11.19-2.30Q12.29-1.15 12.29-0.86L12.29-0.86L12.29-0.63Q12.29 0.08 7.36 0.08Z M39.82-25.06Q41.29-26.72 44.25-26.72Q47.21-26.72 47.99-26.29L47.99-26.29L48.52-25.80Q48.52-25.10 47.73-24.17Q46.95-23.24 46.84-22.93L46.84-22.93Q46.39-21.80 46.39-19.77Q46.39-17.73 46.45-16.35L46.45-16.35L46.64-12.89Q46.74-10.57 46.74-7.68Q46.74-4.79 47.00-4.05Q47.27-3.32 48.03-2.68L48.03-2.68L49.14-1.70Q49.14-0.59 46.80-0.59L46.80-0.59Q43.54-0.59 41.64-1.02L41.64-1.02Q40.29-1.33 40.29-2.25L40.29-2.25L40.43-2.79Q41.15-5.08 41.15-6.22Q41.15-7.36 40.89-10.53Q40.63-13.69 40.63-16.21Q40.63-18.73 40.43-18.73L40.43-18.73Q39.92-18.73 37.48-12.21Q35.04-5.68 34.10-3.85L34.10-3.85Q32.73-1.15 31.42-1.15Q30.10-1.15 29.30-2.77L29.30-2.77L28.85-3.85Q28.63-4.39 27.56-7.15L27.56-7.15L25.82-11.54Q23.05-18.54 22.45-18.54Q21.86-18.54 21.86-13.16L21.86-13.16Q21.86-10.61 21.95-8.81L21.95-8.81L22.11-6.76Q22.19-5.76 22.19-4.77L22.19-4.77L22.27-3.83L22.36-3.05Q22.42-2.44 22.42-1.45L22.42-1.45L22.09-1.05Q21.19-0.41 19.63-0.41L19.63-0.41Q15.98-0.41 15.98-1.33L15.98-1.33Q15.98-1.72 16.73-2.75Q17.48-3.79 17.77-4.72Q18.07-5.64 18.07-8.79L18.07-8.79L18.11-9.94L18.18-11.11Q18.46-16.58 18.46-18.42Q18.46-20.25 18.21-21.33Q17.97-22.40 17.10-23.84Q16.23-25.27 16.23-25.90L16.23-25.90L16.64-26.37Q17.46-26.97 18.36-26.97L18.36-26.97L19.41-26.97Q21.35-26.97 23.01-26.22Q24.67-25.47 25.53-24.22L25.53-24.22L26.07-23.32Q26.74-22.13 27.42-20.34Q28.11-18.55 29.41-15.62Q30.72-12.68 31.66-11.13L31.66-11.13L32.17-10.49Q32.71-10.49 35.93-17.38Q39.14-24.28 39.82-25.06L39.82-25.06Z M65.70 0.31L64.86 0.31Q62.07 0.31 59.90-0.86L59.90-0.86Q55.80-3.09 55.21-8.18L55.21-8.18L55.16-8.98Q55.14-9.39 55.14-10.61L55.14-10.61L55.20-14.53L55.20-18.91Q55.20-22.50 55-22.96Q54.80-23.42 53.58-24.07Q52.36-24.73 52.36-25.53L52.36-25.53L52.36-26.15Q52.36-26.82 53.81-26.95L53.81-26.95Q56.74-27.25 60.39-27.25L60.39-27.25Q62.73-27.25 62.73-26.37L62.73-26.37Q62.73-26.33 62.04-24.90Q61.35-23.48 61.08-21.83Q60.82-20.18 60.82-13.90Q60.82-7.62 61.80-5.63L61.80-5.63Q63.16-2.83 66.72-2.83Q70.27-2.83 71.86-5.49L71.86-5.49Q73.01-7.42 73.01-14.58Q73.01-21.74 72.05-23.93L72.05-23.93L71.78-24.41L71.45-24.86Q70.86-25.78 70.86-26.11L70.86-26.11Q70.86-26.86 71.74-27.03L71.74-27.03Q72.11-27.11 74.81-27.11Q77.52-27.11 78.83-26.60L78.83-26.60Q79.36-26.41 79.36-25.54Q79.36-24.67 78.61-24.10L78.61-24.10Q77.07-22.93 76.89-22.35Q76.72-21.78 76.72-16.97L76.72-16.97L76.76-14.65L76.78-13.87Q76.78-9.18 76.31-6.88Q75.84-4.57 74.47-2.95L74.47-2.95Q71.66 0.31 65.70 0.31L65.70 0.31Z M88.79-24.06L88.79-24.06Q87.17-24.06 85.37-22.58L85.37-22.58Q82.50-20.20 82.34-20.20L82.34-20.20Q81.33-20.20 81.33-21.46L81.33-21.46L81.33-22.07Q81.33-24.18 81.68-25.88L81.68-25.88Q81.86-26.76 82.47-26.93Q83.09-27.11 94.22-27.11L94.22-27.11L101.54-27.15L102.83-27.15Q104.94-27.15 105.34-26.46Q105.74-25.78 105.74-23.48L105.74-23.48L105.74-22.23Q105.74-20.16 104.79-20.16L104.79-20.16Q103.95-20.16 102.75-21.50Q101.56-22.85 100.57-23.45Q99.57-24.04 97.95-24.04L97.95-24.04Q96.66-24.04 96.45-22.34L96.45-22.34Q96.37-21.76 96.37-13.62Q96.37-5.49 96.58-4.61Q96.80-3.73 98.18-2.72Q99.57-1.72 99.57-1.03Q99.57-0.33 98.87-0.16Q98.16 0.02 94.32 0.02L94.32 0.02L91.04 0.02Q89.10 0.02 88.39-0.12Q87.68-0.25 87.68-0.90Q87.68-1.54 89.00-2.73Q90.33-3.93 90.57-4.81Q90.80-5.70 90.80-13.67Q90.80-21.64 90.64-22.45Q90.49-23.26 90.11-23.66Q89.73-24.06 88.79-24.06Z M127.54-12.48L127.54-12.48L127.54-13.79Q127.54-15.78 127.01-17.97L127.01-17.97Q125.96-22.32 123.30-24.00L123.30-24.00Q122.11-24.75 120.57-24.75L120.57-24.75L120.27-24.75Q119.00-24.75 117.68-23.98L117.68-23.98Q115.10-22.50 114.14-18.75L114.14-18.75Q113.54-16.41 113.54-14.08L113.54-14.08L113.54-13.42Q113.54-11.13 114.12-8.91L114.12-8.91Q115.29-4.51 118.14-2.81L118.14-2.81Q119.32-2.11 120.57-2.11L120.57-2.11L121.15-2.11Q122.48-2.11 123.71-2.88Q124.94-3.65 125.72-4.96L125.72-4.96Q127.54-7.99 127.54-12.48ZM107.91-13.32L107.91-13.32Q107.91-16.45 108.87-19.10L108.87-19.10Q110.72-24.30 115.37-26.31L115.37-26.31Q118.07-27.48 120.88-27.48L120.88-27.48L121.35-27.46L121.80-27.46Q124.06-27.46 126.50-26.43Q128.95-25.39 130.67-23.49Q132.40-21.58 133.30-19.05Q134.20-16.52 134.20-13.93L134.20-13.93L134.20-13.48Q134.20-10.53 133.21-7.84Q132.23-5.16 130.37-3.24L130.37-3.24Q126.62 0.64 120.43 0.66L120.43 0.66Q117.89 0.66 115.54-0.30Q113.18-1.27 111.60-3.01L111.60-3.01Q107.91-7.11 107.91-13.32Z M148.85-25.96L148.85-25.96Q148.85-25.70 147.65-24.35Q146.45-22.99 146.22-22.05Q146.00-21.11 146.00-13.10Q146.00-5.08 146.22-4.24Q146.45-3.40 147.17-3.10Q147.89-2.79 149.65-2.79Q151.41-2.79 152.72-3.44Q154.04-4.08 155.57-5.74Q157.09-7.40 158.18-7.40L158.18-7.40Q159.02-7.40 159.02-6.35L159.02-6.35L159.02-5.84Q159.02-4.38 158.55-2.59Q158.09-0.80 157.81-0.55L157.81-0.55Q157.21 0.02 154.88 0.02L154.88 0.02L144.39 0.02Q139.26 0.02 138.71-0.08L138.71-0.08Q137.77-0.25 137.77-1.13L137.77-1.13Q137.77-1.60 138.81-2.64Q139.84-3.67 140.23-5.33L140.23-5.33Q140.39-6.00 140.39-14.08Q140.39-22.17 140.16-22.95Q139.92-23.73 138.65-24.53Q137.38-25.33 137.38-26.33L137.38-26.33Q137.38-27.13 141.19-27.13L141.19-27.13L146.37-27.13Q147.89-27.13 148.37-26.90Q148.85-26.68 148.85-25.96Z M164.26-0.25L164.26-0.25Q161.76-0.25 161.76-1.05Q161.76-1.86 163.06-2.76Q164.36-3.67 164.65-4.80Q164.94-5.94 164.94-13.76Q164.94-21.58 164.79-22.19L164.79-22.19Q164.43-23.57 163.46-24.26L163.46-24.26Q161.68-25.51 161.68-26.21L161.68-26.21L161.68-26.48Q161.68-27.19 166.60-27.19L166.60-27.19L167.93-27.25L169.26-27.25L169.71-27.23L170.16-27.23Q172.38-27.23 172.86-27.06Q173.34-26.89 173.34-26.05L173.34-26.05Q173.34-25.55 171.89-24.38L171.89-24.38Q171.11-23.73 170.84-22.54Q170.57-21.35 170.57-13.34Q170.57-5.33 170.78-4.45Q171.00-3.57 172.19-2.56Q173.38-1.54 173.38-0.88L173.38-0.88Q173.38-0.10 171.82-0.10L171.82-0.10L170.45-0.10L170-0.12L169.08-0.12L167.75-0.16L166.00-0.20L165.14-0.23Q164.71-0.25 164.26-0.25Z M185.57-16.72L185.59-16.56L185.63-15.88Q185.63-15.27 186.48-15.27L186.48-15.27L187.38-15.27L187.54-15.29L188.59-15.33Q188.75-15.35 188.91-15.35L188.91-15.35Q190.41-15.35 191.66-16.47Q192.91-17.60 192.91-19.32L192.91-19.32L192.95-19.63L192.95-20.25Q192.95-22.03 191.69-23.16Q190.43-24.30 187.91-24.30L187.91-24.30L187.15-24.30Q185.86-24.30 185.64-23.67L185.64-23.67Q185.57-23.44 185.57-20.23L185.57-20.23L185.57-16.72ZM185.55-4.77L185.57-4.61L185.61-3.81Q185.61-2.66 187.70-2.66L187.70-2.66L187.87-2.64L188.03-2.62L188.73-2.60L189.61-2.60Q191.54-2.60 192.90-3.83Q194.26-5.06 194.26-7.17L194.26-7.17L194.26-7.91Q194.26-9.88 192.85-11.29Q191.45-12.70 188.55-12.70L188.55-12.70L187.34-12.70Q185.86-12.70 185.71-12.35Q185.57-12.01 185.57-7.89L185.57-7.89L185.55-7.56L185.55-7.07L185.53-6.91L185.53-6.58L185.51-5.92L185.51-5.76L185.53-5.61L185.53-5.27L185.55-5.12Q185.55-4.94 185.55-4.77L185.55-4.77ZM186.64-27.05L186.64-27.05L188.75-27.05Q193.59-27.05 196.05-25.29Q198.52-23.54 198.52-20.57L198.52-20.57Q198.52-18.87 197.73-17.44Q196.95-16.02 195.85-15.28Q194.75-14.55 194.75-14.45Q194.75-14.36 196.26-13.59Q197.77-12.83 198.67-11.78L198.67-11.78Q200.10-10.08 200.10-8.09L200.10-8.09L200.10-7.58Q200.10-1.76 193.13-0.21L193.13-0.21Q191.27 0.20 187.89 0.20L187.89 0.20L186.86 0.20L186.33 0.18Q185.80 0.16 185.29 0.16L185.29 0.16L184.26 0.12Q183.75 0.10 183.22 0.10L183.22 0.10L180.70 0.04Q178.57 0.04 178.18-0.04L178.18-0.04Q177.17-0.23 177.17-1.00L177.17-1.00Q177.17-1.54 178.46-2.62L178.46-2.62Q179.32-3.34 179.60-4.84Q179.88-6.35 179.88-13.76Q179.88-21.17 179.62-22.27Q179.36-23.36 178.27-24.22Q177.19-25.08 177.19-25.75Q177.19-26.43 177.96-26.66Q178.73-26.89 182.09-26.89L182.09-26.89L184.12-26.97Q186.15-27.05 186.64-27.05Z"/></g>
</svg>
</g></svg></svg>