<svg version="1.1" preserveAspectRatio="none" xmlns="http://www.w3.org/2000/svg" width="500" height="500" viewBox="0 0 500 500"><rect width="100%" height="100%" fill="#232128" fill-opacity="1"/><svg viewBox="165.9336 507.9914 612.9625 176.4" width="333" height="95.83163733507352" x="83.5px" y="202.0842px" xmlns="http://www.w3.org/2000/svg" xmlns:xlink="http://www.w3.org/1999/xlink" preserveAspectRatio="none"><defs></defs><style>.companyName {fill:#A5AEAD;fill-opacity:1;}.icon1 {fill:#A4747F;fill-opacity:1;}.icon2 {fill:#8CA6A2;fill-opacity:1;}.icon3 {fill:#5E718C;fill-opacity:1;}.icon3-str {stroke:#5E718C;stroke-opacity:1;}.text {fill:#A5AEAD;fill-opacity:1;}</style><g opacity="1" transform="rotate(0 236.3847 507.9914)">
<svg width="106.5001" height="120" x="236.3847" y="507.9914" version="1.1" preserveAspectRatio="none" viewBox="29.000139236450195 20.0010929107666 141.9996795654297 159.99940490722656">
  <g transform="matrix(1 0 0 1 0 0)"><g><path d="m54.467 123.527-.002-.05a.278.278 0 0 1-.031-.095c-.385-.774-1.1-1.316-1.921-1.713-1.328-.599-3.284-1.1-5.706-1.38-.947 2.228-1.891 4.457-2.833 6.686 6.339-.233 10.493-1.891 10.493-3.448z" data-color="1" class="icon1"></path><path d="m43.557 149.43-.032-2.421c-.161.007-.321.01-.482.01h-.238a12.916 12.916 0 0 1-.482-.01l-.031 2.37-.008.591-.042 3.187c.454.021.909.034 1.363.046l-.042-3.18a58.322 58.322 0 0 0-.006-.593z" data-color="1" class="icon1"></path><path d="M54.162 139.535c.169-.33.326-.668.472-1.012a18.446 18.446 0 0 0 1.033-3.305c.782-3.63 1.012-7.811-.849-11.15-.364.887-1.626 1.69-3.643 2.301-2.017.61-4.605.981-7.395 1.071l-1.406 3.333c.187.138.371.281.553.424 1.385-1.094 2.938-2.156 4.678-1.324.899.43 1.263 1.363 1.943 2.027.945.921 1.772-.058 2.588-.6.806-.535 1.763-.509 2.451.218.796.84.778 2.135.665 3.209a11.201 11.201 0 0 1-1.404 4.327 12.368 12.368 0 0 1-1.423 2.016c-1.34 1.539-3.07 2.709-4.948 3.499a14.234 14.234 0 0 1-8.135.37 15.138 15.138 0 0 1-2.442-1.088l-.37.891.08.047a12.89 12.89 0 0 0 5.352 1.626.318.318 0 0 1 .213.016c.25.015.501.021.752.021s.501-.006.752-.021a.327.327 0 0 1 .214-.016 12.89 12.89 0 0 0 5.352-1.626c2.215-1.252 3.816-3.098 4.917-5.254z" data-color="1" class="icon1"></path><path d="M170.986 153.961c-.115-2.066-.448-4.138-.685-6.193a1939.756 1939.756 0 0 0-6.635-51.394l.095-2.838.02-.592a29811.142 29811.142 0 0 1 .335-10.024 2300446.36 2300446.36 0 0 1 1.098-32.845l.022-.675.357-10.662.515-15.4a.431.431 0 0 0 .051-.207 5.874 5.874 0 0 0-.025-.575l.003-.091a.424.424 0 0 0-.04-.202c-.142-.902-.549-1.756-1.417-2.105a.408.408 0 0 0-.322-.14 2914.143 2914.143 0 0 0-48.267.235l-1.221.017a2911.549 2911.549 0 0 0-51.815 1.166c-.012-.001-.025.001-.038.001l-3.001.097a59.278 59.278 0 0 0-.73-.02c-1.017-.019-2.157-.04-3.122.328a2.105 2.105 0 0 0-.474.251 1.37 1.37 0 0 0-.46.485c-.189.303-.283.671-.286 1.092-.003.335.008.672.025 1.01l-.008.208c.011.201.032.398.058.591.046.609.102 1.217.139 1.82.002.039.01.074.019.108.544 7.604 1.047 15.211 1.497 22.821a1855.986 1855.986 0 0 1 1.613 31.935l.024.575c.131 3.161.255 6.323.371 9.484l.016.441-.066.151a3360.242 3360.242 0 0 0-9.375 21.726l-1.315 3.085-.129.128L36 145.968c-.389 1.015-.767 2.073-.74 3.124.005.198.025.396.061.594.038.206.093.411.172.615.255.663.728 1.188 1.301 1.618.703.422 1.497.708 2.315.88.593.125 1.197.199 1.804.257l.106.101 3.163.057v.003c.405.01.809.02 1.21.036l7.081.277a6856418.987 6856418.987 0 0 1 56.645 2.214l11.572.452 1.299.051 2.524.099a55830.004 55830.004 0 0 0 20.531.802l3.167.124 17.552.686 2.735.107a3.904 3.904 0 0 0 1.248-.48c.155-.092.307-.192.455-.304.456-.594.677-1.308.759-2.06.021-.195.034-.392.038-.59a8.8 8.8 0 0 0-.012-.67zM109.569 24.068a.9.9 0 0 1-.614.254h-.116a.9.9 0 0 1-.614-.254c-.171-.157-.245-.389-.255-.614a.881.881 0 0 1 .255-.614.9.9 0 0 1 .614-.254h.116c.235 0 .444.098.614.254.171.157.244.389.255.614a.89.89 0 0 1-.255.614z" data-color="1" class="icon1"></path><path d="M70.24 90.431c-.008.006-.014.014-.021.021.007-.007.013-.015.021-.021z" data-color="2" class="icon2"></path><path d="m150.393 95.792.003-.023c-.001.008-.001.016-.003.023z" data-color="2" class="icon2"></path><path d="M60.633 40.753c.33 5.158.633 10.318.913 15.479l.032.575c.456 8.446.846 16.896 1.171 25.348l.022.576.08 2.104a.52.52 0 0 1 .014.088c.004.049.048.471.051.594.085-.012.183 0 .271.007l7.749.025.909.003 12.235.039 19.952.064.664.002 6.076.02.576.002 8.498.027.575.002 30.123.097.575.002 7.345.024.038-1.076.002-.016.059-1.33.026-.575a3570.584 3570.584 0 0 0 1.032-24.807l.022-.575c.138-3.606.268-7.211.396-10.817l.024-.668c.197-5.605.383-11.211.556-16.817-.004-.031-.006-.064-.004-.099.042-.685.054-1.369.039-2.055l-20.927.052-4.399.086-6.202.121-1.148.022-17.501.342-.575.011-13.073.256-37.017.724.001.009a1527.47 1527.47 0 0 1 .82 12.134z" data-color="2" class="icon2"></path><path d="m169.867 154.583-2.013-.082-47.568-1.941-1.759-.072-57.402-2.342-20.368-.851.008.592c14.1.575 31.576 1.308 45.676 1.883l34.124 1.392 23.278.95 24.384.995 1.604.065 1.13.046c.021-.195.034-.392.038-.59-.378-.014-.755-.03-1.132-.045z"></path><path d="m41.71 149.946.008-.591-5.219-.213-1.239-.051c.005.198.025.396.061.594l1.335.054c1.685.07 3.369.139 5.054.207z"></path><path d="m69.726 92.757-.288 1.461c0 .067.003.132.015.188.119.549.758.526 1.237.569l.283.025a2983.42 2983.42 0 0 0 79.515 1.591.31.31 0 0 0 .083-.01.245.245 0 0 0 .068-.029c.107-.021.204-.093.23-.207l.071-.308a.324.324 0 0 0 .024-.083c.1-.743.17-1.487.209-2.233l11.033-.162 1.556-.023.02-.592-.888.013-11.696.172c.016-.543.016-1.087-.003-1.632a.38.38 0 0 0-.018-.093c-.002-.012-.003-.024-.007-.036l-.01-.03c-.044-.137-.185-.24-.331-.213a.284.284 0 0 0-.105-.018 1643.25 1643.25 0 0 1-62.441-.321 1662.39 1662.39 0 0 1-17.581-.52l-.024.002h-.001a.421.421 0 0 0-.291.035l-.016.008-.007.003-.015.012a.396.396 0 0 0-.107.105c-.008.006-.014.014-.021.021l-.011.013-.015.022a.196.196 0 0 0-.013.025l-.009.019a.284.284 0 0 0-.016.054l-.312 1.581a312.375 312.375 0 0 0-9.872.03l-1.288.025.016.441-.066.151c.431-.01.862-.018 1.293-.026 3.265-.06 6.532-.071 9.799-.03zm.976-1.9a1642.612 1642.612 0 0 0 62.433.991c5.824-.018 11.648-.069 17.471-.149.004.171.007.342.009.514v.104c.001.136.001.272-.001.408-.002.159-.006.318-.01.477l-.001.035c-.027.846-.094 1.69-.207 2.531l-.003.023c-.004.011-.009.021-.012.032l-.04.175a3174.25 3174.25 0 0 1-15.734-.147l-.281-.004a3196.243 3196.243 0 0 1-15.454-.226 2978.315 2978.315 0 0 1-48.865-1.244l.695-3.52z"></path><path d="M105.227 129.937c-.744-.18-1.562-.167-2.322-.229a254.538 254.538 0 0 0-26.882-.774.997.997 0 0 0-.054.007c-.958.136-1.846.454-2.404 1.275a70.059 70.059 0 0 0-3.217 11.304c-.178.913-.395 1.846-.463 2.775-.064.871.158 1.621 1.069 1.879.825.233 1.739.163 2.587.18l3.189.062 12.754.246 6.259.121c2.035.039 4.116.211 6.148.1.98-.054 1.51-.492 1.784-1.432.267-.916.473-1.854.702-2.781.127-.754.253-1.509.383-2.263l.883-5.116.441-2.558c.103-.595.303-1.272.144-1.876-.13-.497-.516-.803-1.001-.92z"></path><path d="m59.511 118.688-4.467-.228-.856 3.219 4.505.188.818-3.179z"></path><path d="m59.741 121.787 4.508.105.759-3.193-4.471-.147-.796 3.235z"></path><path d="m65.63 122.053 4.508.105.759-3.193-4.471-.146-.796 3.234z"></path><path d="m71.431 122.26 4.508.105.759-3.193-4.471-.146-.796 3.234z"></path><path d="m72.554 114.612-4.47-.146-.797 3.235 4.509.105.758-3.194z"></path><path d="m72.881 117.997 4.508.105.759-3.194-4.471-.146-.796 3.235z"></path><path d="m78.741 117.997 4.508.105.759-3.194-4.471-.146-.796 3.235z"></path><path d="m84.482 117.997 4.508.105.759-3.194-4.471-.146-.796 3.235z"></path><path d="m90.431 118.144 4.508.105.759-3.193-4.471-.146-.796 3.234z"></path><path d="m96.142 118.355 4.509.105.759-3.194-4.471-.146-.797 3.235z"></path><path d="m102.887 115.12-.796 3.235 4.508.105.759-3.194-4.471-.146z"></path><path d="m107.951 118.532 4.508.105.759-3.193-4.471-.147-.796 3.235z"></path><path d="m107.24 122.95 4.509.105.759-3.194-4.471-.146-.797 3.235z"></path><path d="m66.467 114.624-10.111-.158-.869 2.681 10.181.375.799-2.898z"></path><path d="m64.958 110.542-7.063-.098-1.046 2.76 7.043.316 1.066-2.978z"></path><path d="m64.109 106.737-4.814-.158-.888 2.642 5.071.217.631-2.701z"></path><path d="m64.958 102.735-4.321-.197-.848 2.76 4.419.177.75-2.74z"></path><path d="m113.75 118.637 4.696.127.375-3.154h-4.558l-.513 3.027z"></path><path d="m113.395 122.975 4.696.127.375-3.155h-4.558l-.513 3.028z"></path><path d="m119.669 118.764 5.544.119.197-3.057h-5.406l-.335 2.938z"></path><path d="m119.353 123.22 5.544.118.198-3.056h-5.406l-.336 2.938z"></path><path d="m125.944 123.536 5.544.118.197-3.056h-5.406l-.335 2.938z"></path><path d="m133.182 123.536 5.544.118.197-3.056h-5.406l-.335 2.938z"></path><path d="m126.501 118.883 5.371.073v-3.016h-5.268l-.103 2.943z"></path><path d="m138.812 116.043-5.445-.103-.074 2.943 5.519.073v-2.913z"></path><path d="M143.585 116.339h-3.421l-.124 3.076 3.49-.083.055-2.993z"></path><path d="m140.04 115.403 3.555-.084.056-3.049h-3.485l-.126 3.133z"></path><path d="m140.04 111.094 3.345-.078.053-2.869h-3.279l-.119 2.947z"></path><path d="M143.036 104.006h-3.12l-.112 2.805 3.182-.075.05-2.73z"></path><path d="m145.343 116.31-.124 3.075 3.49-.082.055-2.993h-3.421z"></path><path d="m145.219 115.373 3.555-.084.056-3.049h-3.485l-.126 3.133z"></path><path d="m145.219 111.065 3.345-.079.053-2.869h-3.279l-.119 2.948z"></path><path d="M148.215 103.977h-3.12l-.112 2.805 3.182-.076.05-2.729z"></path><path d="M153.633 116.31h-3.422l-.123 3.075 3.49-.082.055-2.993z"></path><path d="m150.62 123.94 3.491-.083.055-2.993h-3.422l-.124 3.076z"></path><path d="m150.088 115.373 3.554-.084.056-3.049h-3.484l-.126 3.133z"></path><path d="m150.088 111.065 3.344-.079.053-2.869h-3.279l-.118 2.948z"></path><path d="M153.084 103.977h-3.12l-.113 2.805 3.182-.076.051-2.729z"></path><path d="M158.152 104.332h-3.684l-.133 2.691 3.758-.072.059-2.619z"></path><path d="M155.726 124.265h3.877l-.208-7.926h-4.084l.415 7.926z"></path><path d="M155.097 115.215h3.529l-.189-7.068h-3.718l.378 7.068z"></path><path d="m70.423 102.892-4.459-.118-.69 2.484 4.419.119.73-2.485z"></path><path d="m75.75 103.011-4.321-.119-.749 2.386 4.419.099.651-2.366z"></path><path d="m81.57 103.109-4.32-.118-.75 2.386 4.419.098.651-2.366z"></path><path d="m86.917 103.188-4.321-.118-.749 2.386 4.419.098.651-2.366z"></path><path d="m92.343 103.306-4.321-.118-.75 2.386 4.42.098.651-2.366z"></path><path d="m97.789 103.405-4.321-.118-.75 2.385 4.419.099.652-2.366z"></path><path d="m103.293 103.405-4.321-.118-.749 2.385 4.419.099.651-2.366z"></path><path d="m108.887 103.612-4.321-.118-.75 2.385 4.42.099.651-2.366z"></path><path d="m114.303 103.612-4.321-.118-.75 2.385 4.419.099.652-2.366z"></path><path d="m119.867 103.76-4.321-.118-.75 2.385 4.42.099.651-2.366z"></path><path d="m125.579 103.76-4.321-.118-.75 2.385 4.419.099.652-2.366z"></path><path d="m131.35 103.937-4.321-.118-.75 2.386 4.419.098.652-2.366z"></path><path d="m70.334 107.033-4.459-.118-.69 2.484 4.419.118.73-2.484z"></path><path d="m75.661 107.151-4.321-.118-.749 2.386 4.419.098.651-2.366z"></path><path d="m81.482 107.25-4.321-.119-.75 2.386 4.419.099.652-2.366z"></path><path d="m86.828 107.329-4.32-.119-.75 2.386 4.419.099.651-2.366z"></path><path d="m92.254 107.447-4.321-.118-.749 2.385 4.419.099.651-2.366z"></path><path d="m97.7 107.545-4.321-.118-.75 2.386 4.419.098.652-2.366z"></path><path d="m103.204 107.545-4.321-.118-.749 2.386 4.419.098.651-2.366z"></path><path d="m108.798 107.753-4.321-.119-.75 2.386 4.42.099.651-2.366z"></path><path d="m114.214 107.753-4.321-.119-.75 2.386 4.419.099.652-2.366z"></path><path d="m119.778 107.9-4.321-.118-.75 2.386 4.42.098.651-2.366z"></path><path d="m125.49 107.9-4.321-.118-.75 2.386 4.42.098.651-2.366z"></path><path d="m131.261 108.078-4.321-.118-.75 2.385 4.419.099.652-2.366z"></path><path d="m70.887 110.809-4.458-.119-.691 2.485 4.419.118.73-2.484z"></path><path d="m71.144 113.194 4.419.099.652-2.366-4.321-.118-.75 2.385z"></path><path d="m76.964 113.293 4.42.098.651-2.366-4.321-.118-.75 2.386z"></path><path d="m82.311 113.372 4.42.098.651-2.366-4.321-.118-.75 2.386z"></path><path d="m87.959 113.687 4.42.099.651-2.366-4.321-.118-.75 2.385z"></path><path d="m93.607 113.687 4.42.099.651-2.366-4.321-.118-.75 2.385z"></path><path d="m104.28 111.528-4.321-.118-.749 2.386 4.419.098.651-2.366z"></path><path d="m109.351 111.528-4.321-.118-.75 2.386 4.42.098.651-2.366z"></path><path d="m115.753 111.854-4.321-.119-.749 2.386 4.419.099.651-2.366z"></path><path d="m121.515 112.061-4.321-.119-.75 2.386 4.42.099.651-2.366z"></path><path d="m127.434 112.208-4.321-.118-.75 2.386 4.42.098.651-2.366z"></path><path d="M138.442 104.006h-6.096l-.148 2.297h6.244v-2.297z"></path><path d="m132.494 111.41-3.522.138-.247 3.372 9.895.295.192-7.433-6.052.178-.266 3.45z"></path><path d="m77.329 122.52 28.37.818.563-3.623-27.868-.566-1.065 3.371z"></path><path d="m139.922 123.654 8.908.138.207-3.194h-8.849l-.266 3.056z"></path><path d="M108.838 24.322h.116a.896.896 0 0 0 .614-.254.886.886 0 0 0 .255-.614c-.01-.225-.084-.457-.255-.614a.903.903 0 0 0-.614-.254h-.116a.896.896 0 0 0-.614.254.886.886 0 0 0-.255.614c.01.225.084.458.255.614.17.156.379.254.614.254z"></path><path d="m43.557 149.43-1.264-.052-.008.591 1.28.052-.008-.591z"></path><path d="M38.246 129.873c-.899.43-1.263 1.363-1.943 2.027-.944.921-1.772-.058-2.587-.6-.806-.535-1.763-.509-2.451.218-.369.389-.561.877-.652 1.394-.06.344-.076.701-.066 1.053.007.26.027.517.053.763.246 2.352 1.279 4.566 2.827 6.344.98 1.126 2.17 2.054 3.472 2.781.78.435 1.601.798 2.442 1.088 2.69.672 5.528.542 8.135-.37 1.878-.791 3.608-1.96 4.948-3.499.264-.304.512-.621.745-.948.245-.344.471-.701.678-1.068a11.201 11.201 0 0 0 1.404-4.327c.112-1.075.13-2.369-.665-3.209-.688-.727-1.645-.753-2.451-.218-.816.542-1.643 1.521-2.587.6-.68-.664-1.044-1.596-1.943-2.027-1.741-.833-3.294.23-4.679 1.324a21.247 21.247 0 0 0-.553-.424c-1.243-.918-2.614-1.626-4.127-.902z" data-color="3" class="icon3"></path><path d="m44.133 149.454-.032-2.482a13.397 13.397 0 0 0 4.118-1.037c3.832-1.646 6.368-4.915 7.563-8.854.754-2.485 1.228-5.343 1.018-8.081-.221-1.912-.689-3.799-1.605-5.433a12.52 12.52 0 0 0-.179-.289c-.55-1.229-1.78-1.946-3.014-2.418-1.583-.606-3.262-.961-4.948-1.151a28.633 28.633 0 0 0-1.046-.098 31.09 31.09 0 0 0-3.083-.066 30.788 30.788 0 0 0-3.083.066c-2.035.152-4.083.518-5.994 1.249-1.234.472-2.464 1.189-3.014 2.418a12.52 12.52 0 0 0-.179.289c-.916 1.634-1.384 3.521-1.605 5.433-.21 2.738.265 5.597 1.018 8.081 1.051 3.466 3.141 6.413 6.239 8.192.423.243.864.464 1.324.662 1.325.569 2.715.914 4.118 1.037l-.031 2.383-.008.591-.042 3.178-.103 7.879c-.027 2.094-.007 4.194-.102 6.286-.044.97-.139 1.939-.365 2.884a19.56 19.56 0 0 0-1.55.138c-1.878.196-3.605.627-5.006 1.262-.492.223-.93.466-1.312.724-.64.384-1.194.871-1.494 1.528a2.566 2.566 0 0 0-.339 1.252c0 1.34 1.117 2.584 3.144 3.504 1.685.764 3.842 1.233 6.169 1.353.735.059 1.476.077 2.214.06.738.018 1.479-.001 2.214-.06 2.326-.12 4.484-.589 6.169-1.353 2.028-.919 3.144-2.164 3.144-3.504 0-.43-.116-.85-.339-1.252-.3-.656-.854-1.144-1.494-1.528a8.935 8.935 0 0 0-1.312-.724c-1.4-.635-3.127-1.065-5.006-1.262a20.044 20.044 0 0 0-1.55-.138c-.226-.945-.321-1.915-.365-2.884-.095-2.092-.075-4.192-.102-6.286l-.102-7.787-.041-3.171-.007-.591zm-12.749-25.977a.278.278 0 0 0 .031-.095c.385-.774 1.1-1.316 1.921-1.713 1.632-.736 4.209-1.324 7.437-1.535a32.019 32.019 0 0 1 2.032-.016v.005l.119-.002.119.002v-.005a32.019 32.019 0 0 1 2.032.016c.6.039 1.178.092 1.731.155 2.423.279 4.378.78 5.706 1.379.821.397 1.536.939 1.921 1.713a.285.285 0 0 0 .031.095l.002.05c0 1.557-4.155 3.215-10.493 3.449-.344.013-.693.021-1.049.025-6.926-.079-11.543-1.833-11.543-3.474l.003-.049zm5.223 21.312-.08-.047c-3.548-2.041-5.501-5.608-6.345-9.525-.783-3.63-1.012-7.811.849-11.15.364.888 1.626 1.69 3.643 2.301 2.193.663 5.061 1.045 8.13 1.089v.004l.119-.002.119.002v-.004c.246-.004.491-.01.735-.018 2.79-.09 5.379-.461 7.395-1.071 2.018-.61 3.279-1.413 3.643-2.301 1.861 3.34 1.632 7.521.849 11.15a18.446 18.446 0 0 1-1.033 3.305c-.146.344-.303.681-.472 1.012-1.101 2.155-2.702 4.001-4.92 5.254a12.894 12.894 0 0 1-5.352 1.626.321.321 0 0 0-.214.016c-.25.015-.501.021-.752.021s-.502-.006-.752-.021a.334.334 0 0 0-.214-.016 12.879 12.879 0 0 1-5.348-1.625zm12.578 26.721c1.251.38 2.667.849 3.696 1.688 1.263 1.03 1.015 2.648-.125 3.677-.989.893-2.381 1.375-3.637 1.75-1.966.587-4.025.813-6.076.765v-.006l-.119.003-.119-.003v.006c-2.051.048-4.109-.178-6.076-.765-1.256-.375-2.647-.857-3.637-1.75-1.14-1.029-1.388-2.647-.125-3.677 1.029-.839 2.444-1.308 3.696-1.688a18.323 18.323 0 0 1 4.276-.751c-.224.733-.515 1.453-.587 2.221-.007.07-.009.141-.01.212l.031.001a.298.298 0 0 0 .269.251c1.532.145 3.067.184 4.604.119.269-.011.342-.319.219-.48l.037-.001-.007-.103c-.072-.768-.362-1.488-.587-2.221 1.453.084 2.885.329 4.277.752zm-4.891-.858c.143.502.309.996.452 1.503.073.26.136.549.168.844a33.867 33.867 0 0 1-3.966-.104 5.37 5.37 0 0 1 .155-.74c.143-.507.308-1.002.452-1.503.044-.153.085-.307.123-.461.049-.197.093-.396.128-.598.308-1.773.27-3.588.293-5.381l.076-5.844.068-5.211.042-3.187.008-.591.031-2.37c.161.007.321.01.482.01h.238c.161-.001.321-.003.482-.01l.032 2.421.008.592.042 3.18.068 5.166.076 5.844c.023 1.792-.015 3.608.293 5.381.035.202.079.401.128.598.036.154.078.308.121.461z" data-color="2" class="icon2"></path><path d="M34.218 130.119a.85.85 0 0 0 .773.38.944.944 0 0 0 .71-1.436c-.35-.574-1.198-.621-1.577-.055a.834.834 0 0 0 .005.934.684.684 0 0 0 .089.177z" data-color="3" class="icon3"></path></g></g>
</svg>
</g><g opacity="1" transform="rotate(0 165.9336 657.9914)">
<svg width="612.9625" height="26.4" x="165.9336" y="657.9914" version="1.1" preserveAspectRatio="none" viewBox="2.8 -33.68 962.16 41.44">
  <g transform="matrix(1 0 0 1 0 0)" class="text"><path id="id-6izo4zJp43" d="M20.20-22.32L20.20-19.80L5.48-14L20.20-8.20L20.20-5.72L2.80-12.68L2.80-15.32L20.20-22.32Z M29.80-22.32L47.20-15.32L47.20-12.68L29.80-5.72L29.80-8.20L44.52-14L29.80-19.80L29.80-22.32Z M85.20 0.24Q81.04 0.24 77.70-1.60Q74.36-3.44 72.46-6.70Q70.56-9.96 70.56-14L70.56-14Q70.56-18.04 72.46-21.30Q74.36-24.56 77.72-26.40Q81.08-28.24 85.24-28.24L85.24-28.24Q88.36-28.24 91-27.20Q93.64-26.16 95.48-24.16L95.48-24.16L93.60-22.28Q90.32-25.60 85.32-25.60L85.32-25.60Q82-25.60 79.28-24.08Q76.56-22.56 75.02-19.92Q73.48-17.28 73.48-14L73.48-14Q73.48-10.72 75.02-8.08Q76.56-5.44 79.28-3.92Q82-2.40 85.32-2.40L85.32-2.40Q90.36-2.40 93.60-5.76L93.60-5.76L95.48-3.88Q93.64-1.88 90.98-0.82Q88.32 0.24 85.20 0.24L85.20 0.24Z M112.88 0.20Q109.84 0.20 107.40-1.18Q104.96-2.56 103.56-5Q102.16-7.44 102.16-10.52L102.16-10.52Q102.16-13.60 103.56-16.04Q104.96-18.48 107.40-19.84Q109.84-21.20 112.88-21.20L112.88-21.20Q115.92-21.20 118.36-19.84Q120.80-18.48 122.18-16.04Q123.56-13.60 123.56-10.52L123.56-10.52Q123.56-7.44 122.18-5Q120.80-2.56 118.36-1.18Q115.92 0.20 112.88 0.20L112.88 0.20ZM112.88-2.32Q115.12-2.32 116.90-3.34Q118.68-4.36 119.68-6.24Q120.68-8.12 120.68-10.52L120.68-10.52Q120.68-12.92 119.68-14.80Q118.68-16.68 116.90-17.70Q115.12-18.72 112.88-18.72L112.88-18.72Q110.64-18.72 108.86-17.70Q107.08-16.68 106.06-14.80Q105.04-12.92 105.04-10.52L105.04-10.52Q105.04-8.12 106.06-6.24Q107.08-4.36 108.86-3.34Q110.64-2.32 112.88-2.32L112.88-2.32Z M149.72-29.68L152.56-29.68L152.56 0L149.84 0L149.84-4.16Q148.56-2.04 146.46-0.92Q144.36 0.20 141.72 0.20L141.72 0.20Q138.76 0.20 136.36-1.16Q133.96-2.52 132.60-4.96Q131.24-7.40 131.24-10.52L131.24-10.52Q131.24-13.64 132.60-16.08Q133.96-18.52 136.36-19.86Q138.76-21.20 141.72-21.20L141.72-21.20Q144.28-21.20 146.34-20.14Q148.40-19.08 149.72-17.04L149.72-17.04L149.72-29.68ZM141.96-2.32Q144.16-2.32 145.94-3.34Q147.72-4.36 148.74-6.24Q149.76-8.12 149.76-10.52L149.76-10.52Q149.76-12.92 148.74-14.80Q147.72-16.68 145.94-17.70Q144.16-18.72 141.96-18.72L141.96-18.72Q139.72-18.72 137.94-17.70Q136.16-16.68 135.14-14.80Q134.12-12.92 134.12-10.52L134.12-10.52Q134.12-8.12 135.14-6.24Q136.16-4.36 137.94-3.34Q139.72-2.32 141.96-2.32L141.96-2.32Z M182.84-10.52L182.80-9.64L165.20-9.64Q165.44-6.36 167.72-4.34Q170-2.32 173.48-2.32L173.48-2.32Q175.44-2.32 177.08-3.02Q178.72-3.72 179.92-5.08L179.92-5.08L181.52-3.24Q180.12-1.56 178.02-0.68Q175.92 0.20 173.40 0.20L173.40 0.20Q170.16 0.20 167.66-1.18Q165.16-2.56 163.76-5Q162.36-7.44 162.36-10.52L162.36-10.52Q162.36-13.60 163.70-16.04Q165.04-18.48 167.38-19.84Q169.72-21.20 172.64-21.20L172.64-21.20Q175.56-21.20 177.88-19.84Q180.20-18.48 181.52-16.06Q182.84-13.64 182.84-10.52L182.84-10.52ZM172.64-18.76Q169.60-18.76 167.54-16.82Q165.48-14.88 165.20-11.76L165.20-11.76L180.12-11.76Q179.84-14.88 177.78-16.82Q175.72-18.76 172.64-18.76L172.64-18.76Z M212.76 0.20Q210.20 0.20 207.86-0.54Q205.52-1.28 204.20-2.40L204.20-2.40L205.48-4.64Q206.80-3.60 208.80-2.94Q210.80-2.28 212.96-2.28L212.96-2.28Q215.84-2.28 217.22-3.18Q218.60-4.08 218.60-5.72L218.60-5.72Q218.60-6.88 217.84-7.54Q217.08-8.20 215.92-8.54Q214.76-8.88 212.84-9.20L212.84-9.20Q210.28-9.68 208.72-10.18Q207.16-10.68 206.06-11.88Q204.96-13.08 204.96-15.20L204.96-15.20Q204.96-17.84 207.16-19.52Q209.36-21.20 213.28-21.20L213.28-21.20Q215.32-21.20 217.36-20.66Q219.40-20.12 220.72-19.24L220.72-19.24L219.48-16.96Q216.88-18.76 213.28-18.76L213.28-18.76Q210.56-18.76 209.18-17.80Q207.80-16.84 207.80-15.28L207.80-15.28Q207.80-14.08 208.58-13.36Q209.36-12.64 210.52-12.30Q211.68-11.96 213.72-11.60L213.72-11.60Q216.24-11.12 217.76-10.64Q219.28-10.16 220.36-9Q221.44-7.84 221.44-5.80L221.44-5.80Q221.44-3.04 219.14-1.42Q216.84 0.20 212.76 0.20L212.76 0.20Z M239.28 0.20Q236.24 0.20 233.80-1.18Q231.36-2.56 229.96-5Q228.56-7.44 228.56-10.52L228.56-10.52Q228.56-13.60 229.96-16.04Q231.36-18.48 233.80-19.84Q236.24-21.20 239.28-21.20L239.28-21.20Q242.32-21.20 244.76-19.84Q247.20-18.48 248.58-16.04Q249.96-13.60 249.96-10.52L249.96-10.52Q249.96-7.44 248.58-5Q247.20-2.56 244.76-1.18Q242.32 0.20 239.28 0.20L239.28 0.20ZM239.28-2.32Q241.52-2.32 243.30-3.34Q245.08-4.36 246.08-6.24Q247.08-8.12 247.08-10.52L247.08-10.52Q247.08-12.92 246.08-14.80Q245.08-16.68 243.30-17.70Q241.52-18.72 239.28-18.72L239.28-18.72Q237.04-18.72 235.26-17.70Q233.48-16.68 232.46-14.80Q231.44-12.92 231.44-10.52L231.44-10.52Q231.44-8.12 232.46-6.24Q233.48-4.36 235.26-3.34Q237.04-2.32 239.28-2.32L239.28-2.32Z M279.88 0.20Q277.32 0.20 274.98-0.54Q272.64-1.28 271.32-2.40L271.32-2.40L272.60-4.64Q273.92-3.60 275.92-2.94Q277.92-2.28 280.08-2.28L280.08-2.28Q282.96-2.28 284.34-3.18Q285.72-4.08 285.72-5.72L285.72-5.72Q285.72-6.88 284.96-7.54Q284.20-8.20 283.04-8.54Q281.88-8.88 279.96-9.20L279.96-9.20Q277.40-9.68 275.84-10.18Q274.28-10.68 273.18-11.88Q272.08-13.08 272.08-15.20L272.08-15.20Q272.08-17.84 274.28-19.52Q276.48-21.20 280.40-21.20L280.40-21.20Q282.44-21.20 284.48-20.66Q286.52-20.12 287.84-19.24L287.84-19.24L286.60-16.96Q284.00-18.76 280.40-18.76L280.40-18.76Q277.68-18.76 276.30-17.80Q274.92-16.84 274.92-15.28L274.92-15.28Q274.92-14.08 275.70-13.36Q276.48-12.64 277.64-12.30Q278.80-11.96 280.84-11.60L280.84-11.60Q283.36-11.12 284.88-10.64Q286.40-10.16 287.48-9Q288.56-7.84 288.56-5.80L288.56-5.80Q288.56-3.04 286.26-1.42Q283.96 0.20 279.88 0.20L279.88 0.20Z M308.52-21.20Q312.48-21.20 314.82-18.90Q317.16-16.60 317.16-12.20L317.16-12.20L317.16 0L314.32 0L314.32-11.92Q314.32-15.20 312.68-16.92Q311.04-18.64 308.00-18.64L308.00-18.64Q304.60-18.64 302.62-16.62Q300.64-14.60 300.64-11.04L300.64-11.04L300.64 0L297.80 0L297.80-29.68L300.64-29.68L300.64-17.36Q301.80-19.20 303.84-20.20Q305.88-21.20 308.52-21.20L308.52-21.20Z M336.24-21.20Q340.36-21.20 342.56-19.14Q344.76-17.08 344.76-13.04L344.76-13.04L344.76 0L342.04 0L342.04-3.28Q341.08-1.64 339.22-0.72Q337.36 0.20 334.80 0.20L334.80 0.20Q331.28 0.20 329.20-1.48Q327.12-3.16 327.12-5.92L327.12-5.92Q327.12-8.60 329.06-10.24Q331-11.88 335.24-11.88L335.24-11.88L341.92-11.88L341.92-13.16Q341.92-15.88 340.40-17.30Q338.88-18.72 335.96-18.72L335.96-18.72Q333.96-18.72 332.12-18.06Q330.28-17.40 328.96-16.24L328.96-16.24L327.68-18.36Q329.28-19.72 331.52-20.46Q333.76-21.20 336.24-21.20L336.24-21.20ZM335.24-2.04Q337.64-2.04 339.36-3.14Q341.08-4.24 341.92-6.32L341.92-6.32L341.92-9.76L335.32-9.76Q329.92-9.76 329.92-6L329.92-6Q329.92-4.16 331.32-3.10Q332.72-2.04 335.24-2.04L335.24-2.04Z M359.20-16.92Q360.20-19.04 362.18-20.12Q364.16-21.20 367.08-21.20L367.08-21.20L367.08-18.44L366.40-18.48Q363.08-18.48 361.20-16.44Q359.32-14.40 359.32-10.72L359.32-10.72L359.32 0L356.48 0L356.48-21.04L359.20-21.04L359.20-16.92Z M387.04-21.20Q390.00-21.20 392.40-19.86Q394.80-18.52 396.16-16.08Q397.52-13.64 397.52-10.52L397.52-10.52Q397.52-7.36 396.16-4.92Q394.80-2.48 392.42-1.14Q390.04 0.20 387.04 0.20L387.04 0.20Q384.48 0.20 382.42-0.86Q380.36-1.92 379.04-3.96L379.04-3.96L379.04 7.76L376.20 7.76L376.20-21.04L378.92-21.04L378.92-16.88Q380.20-18.96 382.30-20.08Q384.40-21.20 387.04-21.20L387.04-21.20ZM386.84-2.32Q389.04-2.32 390.84-3.34Q392.64-4.36 393.66-6.24Q394.68-8.12 394.68-10.52L394.68-10.52Q394.68-12.92 393.66-14.78Q392.64-16.64 390.84-17.68Q389.04-18.72 386.84-18.72L386.84-18.72Q384.60-18.72 382.82-17.68Q381.04-16.64 380.02-14.78Q379.00-12.92 379.00-10.52L379.00-10.52Q379.00-8.12 380.02-6.24Q381.04-4.36 382.82-3.34Q384.60-2.32 386.84-2.32L386.84-2.32Z M422.08-16.84Q421.20-16.84 420.58-17.48Q419.96-18.12 419.96-19.04L419.96-19.04Q419.96-19.96 420.58-20.58Q421.20-21.20 422.08-21.20L422.08-21.20Q422.96-21.20 423.60-20.58Q424.24-19.96 424.24-19.04L424.24-19.04Q424.24-18.12 423.60-17.48Q422.96-16.84 422.08-16.84L422.08-16.84ZM422.08 0.20Q421.20 0.20 420.58-0.44Q419.96-1.08 419.96-2L419.96-2Q419.96-2.92 420.58-3.54Q421.20-4.16 422.08-4.16L422.08-4.16Q422.96-4.16 423.60-3.54Q424.24-2.92 424.24-2L424.24-2Q424.24-1.08 423.60-0.44Q422.96 0.20 422.08 0.20L422.08 0.20Z M449.36 0L449.36-28L452.32-28L452.32 0L449.36 0Z M474.92-3.32L475.92-1.28Q475.12-0.56 473.94-0.18Q472.76 0.20 471.48 0.20L471.48 0.20Q468.52 0.20 466.92-1.40Q465.32-3 465.32-5.92L465.32-5.92L465.32-18.64L461.56-18.64L461.56-21.04L465.32-21.04L465.32-25.64L468.16-25.64L468.16-21.04L474.56-21.04L474.56-18.64L468.16-18.64L468.16-6.08Q468.16-4.20 469.10-3.22Q470.04-2.24 471.80-2.24L471.80-2.24Q472.68-2.24 473.50-2.52Q474.32-2.80 474.92-3.32L474.92-3.32Z M527.84-21.04L530.44-21.04L522.48 0L519.80 0L513.16-17.24L506.52 0L503.84 0L495.92-21.04L498.64-21.04L505.24-3.16L512.00-21.04L514.44-21.04L521.16-3.16L527.84-21.04Z M538.72 0L538.72-21.04L541.56-21.04L541.56 0L538.72 0ZM540.16-25.64Q539.28-25.64 538.68-26.24Q538.08-26.84 538.08-27.68L538.08-27.68Q538.08-28.48 538.68-29.08Q539.28-29.68 540.16-29.68L540.16-29.68Q541.04-29.68 541.64-29.10Q542.24-28.52 542.24-27.72L542.24-27.72Q542.24-26.84 541.64-26.24Q541.04-25.64 540.16-25.64L540.16-25.64Z M553.48 0L553.48-29.68L556.32-29.68L556.32 0L553.48 0Z M568.24 0L568.24-29.68L571.08-29.68L571.08 0L568.24 0Z M606.20 0.20Q603.08 0.20 600.62-1.16Q598.16-2.52 596.76-4.98Q595.36-7.44 595.36-10.52L595.36-10.52Q595.36-13.60 596.76-16.04Q598.16-18.48 600.62-19.84Q603.08-21.20 606.20-21.20L606.20-21.20Q608.92-21.20 611.06-20.14Q613.20-19.08 614.44-17.04L614.44-17.04L612.32-15.60Q611.28-17.16 609.68-17.94Q608.08-18.72 606.20-18.72L606.20-18.72Q603.92-18.72 602.10-17.70Q600.28-16.68 599.26-14.80Q598.24-12.92 598.24-10.52L598.24-10.52Q598.24-8.08 599.26-6.22Q600.28-4.36 602.10-3.34Q603.92-2.32 606.20-2.32L606.20-2.32Q608.08-2.32 609.68-3.08Q611.28-3.84 612.32-5.40L612.32-5.40L614.44-3.96Q613.20-1.92 611.04-0.86Q608.88 0.20 606.20 0.20L606.20 0.20Z M640.12-21.04L642.96-21.04L642.96 0L640.24 0L640.24-3.84Q639.12-1.92 637.16-0.86Q635.20 0.20 632.68 0.20L632.68 0.20Q628.56 0.20 626.18-2.10Q623.80-4.40 623.80-8.84L623.80-8.84L623.80-21.04L626.64-21.04L626.64-9.12Q626.64-5.80 628.28-4.08Q629.92-2.36 632.96-2.36L632.96-2.36Q636.28-2.36 638.20-4.38Q640.12-6.40 640.12-10L640.12-10L640.12-21.04Z M665-3.32L666-1.28Q665.20-0.56 664.02-0.18Q662.84 0.20 661.56 0.20L661.56 0.20Q658.60 0.20 657-1.40Q655.40-3 655.40-5.92L655.40-5.92L655.40-18.64L651.64-18.64L651.64-21.04L655.40-21.04L655.40-25.64L658.24-25.64L658.24-21.04L664.64-21.04L664.64-18.64L658.24-18.64L658.24-6.08Q658.24-4.20 659.18-3.22Q660.12-2.24 661.88-2.24L661.88-2.24Q662.76-2.24 663.58-2.52Q664.40-2.80 665-3.32L665-3.32Z M695.28 0.20Q692.72 0.20 690.38-0.54Q688.04-1.28 686.72-2.40L686.72-2.40L688.00-4.64Q689.32-3.60 691.32-2.94Q693.32-2.28 695.48-2.28L695.48-2.28Q698.36-2.28 699.74-3.18Q701.12-4.08 701.12-5.72L701.12-5.72Q701.12-6.88 700.36-7.54Q699.60-8.20 698.44-8.54Q697.28-8.88 695.36-9.20L695.36-9.20Q692.80-9.68 691.24-10.18Q689.68-10.68 688.58-11.88Q687.48-13.08 687.48-15.20L687.48-15.20Q687.48-17.84 689.68-19.52Q691.88-21.20 695.80-21.20L695.80-21.20Q697.84-21.20 699.88-20.66Q701.92-20.12 703.24-19.24L703.24-19.24L702.00-16.96Q699.40-18.76 695.80-18.76L695.80-18.76Q693.08-18.76 691.70-17.80Q690.32-16.84 690.32-15.28L690.32-15.28Q690.32-14.08 691.10-13.36Q691.88-12.64 693.04-12.30Q694.20-11.96 696.24-11.60L696.24-11.60Q698.76-11.12 700.28-10.64Q701.80-10.16 702.88-9Q703.96-7.84 703.96-5.80L703.96-5.80Q703.96-3.04 701.66-1.42Q699.36 0.20 695.28 0.20L695.28 0.20Z M721.80 0.20Q718.76 0.20 716.32-1.18Q713.88-2.56 712.48-5Q711.08-7.44 711.08-10.52L711.08-10.52Q711.08-13.60 712.48-16.04Q713.88-18.48 716.32-19.84Q718.76-21.20 721.80-21.20L721.80-21.20Q724.84-21.20 727.28-19.84Q729.72-18.48 731.10-16.04Q732.48-13.60 732.48-10.52L732.48-10.52Q732.48-7.44 731.10-5Q729.72-2.56 727.28-1.18Q724.84 0.20 721.80 0.20L721.80 0.20ZM721.80-2.32Q724.04-2.32 725.82-3.34Q727.60-4.36 728.60-6.24Q729.60-8.12 729.60-10.52L729.60-10.52Q729.60-12.92 728.60-14.80Q727.60-16.68 725.82-17.70Q724.04-18.72 721.80-18.72L721.80-18.72Q719.56-18.72 717.78-17.70Q716-16.68 714.98-14.80Q713.96-12.92 713.96-10.52L713.96-10.52Q713.96-8.12 714.98-6.24Q716-4.36 717.78-3.34Q719.56-2.32 721.80-2.32L721.80-2.32Z M762.40 0.20Q759.84 0.20 757.50-0.54Q755.16-1.28 753.84-2.40L753.84-2.40L755.12-4.64Q756.44-3.60 758.44-2.94Q760.44-2.28 762.60-2.28L762.60-2.28Q765.48-2.28 766.86-3.18Q768.24-4.08 768.24-5.72L768.24-5.72Q768.24-6.88 767.48-7.54Q766.72-8.20 765.56-8.54Q764.40-8.88 762.48-9.20L762.48-9.20Q759.92-9.68 758.36-10.18Q756.80-10.68 755.70-11.88Q754.60-13.08 754.60-15.20L754.60-15.20Q754.60-17.84 756.80-19.52Q759.00-21.20 762.92-21.20L762.92-21.20Q764.96-21.20 767.00-20.66Q769.04-20.12 770.36-19.24L770.36-19.24L769.12-16.96Q766.52-18.76 762.92-18.76L762.92-18.76Q760.20-18.76 758.82-17.80Q757.44-16.84 757.44-15.28L757.44-15.28Q757.44-14.08 758.22-13.36Q759.00-12.64 760.16-12.30Q761.32-11.96 763.36-11.60L763.36-11.60Q765.88-11.12 767.40-10.64Q768.92-10.16 770.00-9Q771.08-7.84 771.08-5.80L771.08-5.80Q771.08-3.04 768.78-1.42Q766.48 0.20 762.40 0.20L762.40 0.20Z M791.04-21.20Q795-21.20 797.34-18.90Q799.68-16.60 799.68-12.20L799.68-12.20L799.68 0L796.84 0L796.84-11.92Q796.84-15.20 795.20-16.92Q793.56-18.64 790.52-18.64L790.52-18.64Q787.12-18.64 785.14-16.62Q783.16-14.60 783.16-11.04L783.16-11.04L783.16 0L780.32 0L780.32-29.68L783.16-29.68L783.16-17.36Q784.32-19.20 786.36-20.20Q788.40-21.20 791.04-21.20L791.04-21.20Z M818.76-21.20Q822.88-21.20 825.08-19.14Q827.28-17.08 827.28-13.04L827.28-13.04L827.28 0L824.56 0L824.56-3.28Q823.60-1.64 821.74-0.72Q819.88 0.20 817.32 0.20L817.32 0.20Q813.80 0.20 811.72-1.48Q809.64-3.16 809.64-5.92L809.64-5.92Q809.64-8.60 811.58-10.24Q813.52-11.88 817.76-11.88L817.76-11.88L824.44-11.88L824.44-13.16Q824.44-15.88 822.92-17.30Q821.40-18.72 818.48-18.72L818.48-18.72Q816.48-18.72 814.64-18.06Q812.80-17.40 811.48-16.24L811.48-16.24L810.20-18.36Q811.80-19.72 814.04-20.46Q816.28-21.20 818.76-21.20L818.76-21.20ZM817.76-2.04Q820.16-2.04 821.88-3.14Q823.60-4.24 824.44-6.32L824.44-6.32L824.44-9.76L817.84-9.76Q812.44-9.76 812.44-6L812.44-6Q812.44-4.16 813.84-3.10Q815.24-2.04 817.76-2.04L817.76-2.04Z M841.72-16.92Q842.72-19.04 844.70-20.12Q846.68-21.20 849.60-21.20L849.60-21.20L849.60-18.44L848.92-18.48Q845.60-18.48 843.72-16.44Q841.84-14.40 841.84-10.72L841.84-10.72L841.84 0L839.00 0L839.00-21.04L841.72-21.04L841.72-16.92Z M869.56-21.20Q872.52-21.20 874.92-19.86Q877.32-18.52 878.68-16.08Q880.04-13.64 880.04-10.52L880.04-10.52Q880.04-7.36 878.68-4.92Q877.32-2.48 874.94-1.14Q872.56 0.20 869.56 0.20L869.56 0.20Q867 0.20 864.94-0.86Q862.88-1.92 861.56-3.96L861.56-3.96L861.56 7.76L858.72 7.76L858.72-21.04L861.44-21.04L861.44-16.88Q862.72-18.96 864.82-20.08Q866.92-21.20 869.56-21.20L869.56-21.20ZM869.36-2.32Q871.56-2.32 873.36-3.34Q875.16-4.36 876.18-6.24Q877.20-8.12 877.20-10.52L877.20-10.52Q877.20-12.92 876.18-14.78Q875.16-16.64 873.36-17.68Q871.56-18.72 869.36-18.72L869.36-18.72Q867.12-18.72 865.34-17.68Q863.56-16.64 862.54-14.78Q861.52-12.92 861.52-10.52L861.52-10.52Q861.52-8.12 862.54-6.24Q863.56-4.36 865.34-3.34Q867.12-2.32 869.36-2.32L869.36-2.32Z M920.56-22.32L920.56-19.80L905.84-14L920.56-8.20L920.56-5.72L903.16-12.68L903.16-15.32L920.56-22.32Z M926.36 4L939.56-33.68L942.16-33.68L928.96 4L926.36 4Z M947.56-22.32L964.96-15.32L964.96-12.68L947.56-5.72L947.56-8.20L962.28-14L947.56-19.80L947.56-22.32Z"/></g>
</svg>
</g><g opacity="1" transform="rotate(0 368.8848 507.9914)">
<svg width="339.5601" height="120" x="368.8848" y="507.9914" version="1.1" preserveAspectRatio="none" viewBox="1.6602 -28.0273 80.4687 28.4375">
  <g transform="matrix(1 0 0 1 0 0)" class="companyName"><path id="id-D6z1nYkh4" d="M3.65-24.82L3.65-25.33Q3.65-26.46 4.54-27.25Q5.43-28.03 6.46-28.03L6.46-28.03L7.09-28.03Q7.38-27.97 7.58-27.97L7.58-27.97Q8.52-27.97 9.24-27.13Q9.96-26.29 9.96-25.53L9.96-25.53L9.96-25.02Q9.92-24.82 9.92-24.73L9.92-24.73Q9.92-23.91 9.00-23.13Q8.09-22.34 6.97-22.34L6.97-22.34L6.37-22.34Q5.27-22.34 4.48-23.04Q3.69-23.73 3.69-24.63L3.69-24.63L3.65-24.82ZM7.36 0.08L7.36 0.08L5.51 0.08Q2.91 0.08 2.39-0.07Q1.88-0.21 1.88-0.91Q1.88-1.60 2.85-2.58Q3.83-3.55 4.08-4.54Q4.34-5.53 4.34-9.68Q4.34-13.83 4.12-14.57Q3.91-15.31 2.78-15.85Q1.66-16.39 1.66-17.14Q1.66-17.89 2.70-18.24L2.70-18.24Q5.04-19.02 7.87-19.02L7.87-19.02L8.16-19.02Q9.30-19.02 9.47-18.07L9.47-18.07Q9.57-17.52 9.57-11.51Q9.57-5.51 9.83-4.48Q10.10-3.46 11.19-2.30Q12.29-1.15 12.29-0.86L12.29-0.86L12.29-0.63Q12.29 0.08 7.36 0.08Z M34.53-12.70L34.53-12.70L34.53-14.02Q34.53-16.09 33.96-18.07L33.96-18.07Q32.75-22.27 29.45-23.73L29.45-23.73Q27.95-24.39 26.17-24.39L26.17-24.39L25.90-24.38Q23.67-24.38 23.40-23.38L23.40-23.38Q23.34-23.16 23.34-17.54L23.34-17.54L23.34-10.04L23.32-9.75Q23.32-9.45 23.32-9.16L23.32-9.16L23.26-7.11Q23.26-6.82 23.26-6.52L23.26-6.52L23.24-5.64L23.24-5.33Q23.24-3.69 23.65-3.16Q24.06-2.64 25.74-2.64L25.74-2.64L26.91-2.64Q28.55-2.64 30.05-3.48Q31.54-4.32 32.42-5.50Q33.30-6.68 33.92-8.60Q34.53-10.53 34.53-12.70ZM16.43-24.43Q15.31-25 15.31-25.79Q15.31-26.58 16.25-26.74L16.25-26.74Q18.89-27.19 25.33-27.19L25.33-27.19L26.37-27.19Q33.18-27.19 37.09-23.60Q41.00-20.02 41.00-13.75Q41.00-7.48 37.09-3.69Q33.18 0.10 26.74 0.10L26.74 0.10L25.20 0.10L24.69 0.08L23.63 0.06Q23.13 0.04 22.64 0.04L22.64 0.04L18.26-0.10Q16.07-0.10 15.67-0.35Q15.27-0.61 15.27-1.35L15.27-1.35Q15.27-1.78 16.41-2.53Q17.54-3.28 17.83-4.32Q18.13-5.35 18.13-11.19L18.13-11.19L18.09-13.69L18.14-16.64L18.16-17.13Q18.18-17.64 18.18-18.13L18.18-18.13L18.22-19.59Q18.22-22.25 17.81-23.22L17.81-23.22Q17.54-23.87 16.43-24.43Z M53.65-16.66L53.65-16.66L53.09-16.66Q51.86-16.66 50.73-15.38Q49.61-14.10 49.61-12.32L49.61-12.32L49.61-12.01Q49.61-11.29 50.41-11.29L50.41-11.29L50.61-11.25L51.99-11.25L52.09-11.27L55.35-11.46Q55.64-11.52 55.74-11.52L55.74-11.52Q56.74-11.52 56.74-12.56L56.74-12.56L56.74-13.20Q56.74-14.51 55.80-15.59Q54.86-16.66 53.65-16.66ZM49.84-7.36L49.84-7.36Q49.84-5.41 51.68-3.98L51.68-3.98Q53.05-2.91 55.16-2.91L55.16-2.91Q56.11-2.91 58.00-3.46Q59.88-4.00 60.18-4.00L60.18-4.00Q61.05-4.00 61.05-3.05L61.05-3.05Q61.05-1.91 58.72-0.75Q56.39 0.41 53.89 0.41L53.89 0.41L53.03 0.41Q52.99 0.41 52.93 0.41L52.93 0.41Q51.35 0.41 49.71-0.23L49.71-0.23Q46.46-1.48 45.10-4.61L45.10-4.61Q44.16-6.76 44.16-8.69L44.16-8.69L44.16-9.59Q44.16-11.56 44.84-13.40L44.84-13.40Q46.13-16.86 49.39-18.38L49.39-18.38Q51.35-19.28 53.50-19.28L53.50-19.28L53.95-19.28Q57.13-19.28 59.32-17.30L59.32-17.30Q60.47-16.25 61.08-14.77Q61.70-13.28 61.70-11.75Q61.70-10.21 60.20-9.73L60.20-9.73Q58.09-9.04 52.38-9.04L52.38-9.04Q50.86-9.04 50.35-8.66Q49.84-8.28 49.84-7.36Z M74.08-16.66L74.08-16.66L73.52-16.66Q72.29-16.66 71.16-15.38Q70.04-14.10 70.04-12.32L70.04-12.32L70.04-12.01Q70.04-11.29 70.84-11.29L70.84-11.29L71.04-11.25L72.42-11.25L72.52-11.27L75.78-11.46Q76.07-11.52 76.17-11.52L76.17-11.52Q77.17-11.52 77.17-12.56L77.17-12.56L77.17-13.20Q77.17-14.51 76.23-15.59Q75.29-16.66 74.08-16.66ZM70.27-7.36L70.27-7.36Q70.27-5.41 72.11-3.98L72.11-3.98Q73.48-2.91 75.59-2.91L75.59-2.91Q76.54-2.91 78.43-3.46Q80.31-4.00 80.61-4.00L80.61-4.00Q81.48-4.00 81.48-3.05L81.48-3.05Q81.48-1.91 79.15-0.75Q76.82 0.41 74.32 0.41L74.32 0.41L73.46 0.41Q73.42 0.41 73.36 0.41L73.36 0.41Q71.78 0.41 70.14-0.23L70.14-0.23Q66.89-1.48 65.53-4.61L65.53-4.61Q64.59-6.76 64.59-8.69L64.59-8.69L64.59-9.59Q64.59-11.56 65.27-13.40L65.27-13.40Q66.56-16.86 69.82-18.38L69.82-18.38Q71.78-19.28 73.93-19.28L73.93-19.28L74.38-19.28Q77.56-19.28 79.75-17.30L79.75-17.30Q80.90-16.25 81.51-14.77Q82.13-13.28 82.13-11.75Q82.13-10.21 80.63-9.73L80.63-9.73Q78.52-9.04 72.81-9.04L72.81-9.04Q71.29-9.04 70.78-8.66Q70.27-8.28 70.27-7.36Z"/></g>
</svg>
</g></svg></svg>