<svg version="1.1" preserveAspectRatio="none" xmlns="http://www.w3.org/2000/svg" width="500" height="500" viewBox="0 0 500 500"><rect width="100%" height="100%" fill="#0F222D" fill-opacity="1"/><svg viewBox="249.2863 182.6725 368.6925 162.0378" width="333" height="146.35119347423668" x="83.5px" y="176.8244px" xmlns="http://www.w3.org/2000/svg" xmlns:xlink="http://www.w3.org/1999/xlink" preserveAspectRatio="none"><defs></defs><style>.aDFQBjvS2colors-3 {fill:#21303A;fill-opacity:1;}.aDFQBjvS2colors-4 {fill:#51819E;fill-opacity:1;}.aDFQBjvS2colors-5 {fill:#064B75;fill-opacity:1;}.aDFQBjvS2colors-6 {fill:#ACA58C;fill-opacity:1;}.aDFQBjvS2colors-7 {fill:#3E5563;fill-opacity:1;}.companyName {fill:#EBE7D9;fill-opacity:1;}.icon1 {fill:#FFF5D0;fill-opacity:1;}.icon2 {fill:#BA3521;fill-opacity:1;}.icon3 {fill:#F55139;fill-opacity:1;}.icon3-str {stroke:#F55139;stroke-opacity:1;}.text {fill:#EBE7D9;fill-opacity:1;}</style><g opacity="1" transform="rotate(0 310.1596 324.7103)">
<svg width="246.946" height="20" x="310.1596" y="324.7103" version="1.1" preserveAspectRatio="none" viewBox="4.16 -31 484.43999999999994 39.24">
  <g transform="matrix(1 0 0 1 0 0)" class="text"><path id="id-6izo4zJp21" d="M4.16 0L4.16-28.92L12.08-28.92Q17.48-28.92 21.02-26.78Q24.56-24.64 26.18-21.26Q27.80-17.88 27.80-14.12L27.80-14.12Q27.80-9.92 25.84-6.70Q23.88-3.48 20.60-1.74Q17.32 0 13.48 0L13.48 0L4.16 0ZM8.04-3.76L12.72-3.76Q15.92-3.76 18.44-5.02Q20.96-6.28 22.38-8.68Q23.80-11.08 23.80-14.40L23.80-14.40Q23.80-17.80 22.32-20.24Q20.84-22.68 18.38-23.94Q15.92-25.20 13.08-25.20L13.08-25.20L8.04-25.20L8.04-3.76Z M43.56-2.80Q45.64-2.80 47.60-4.24L47.60-4.24L49.32-1.48Q48-0.60 46.46-0.10Q44.92 0.40 43.48 0.40L43.48 0.40Q40.72 0.40 38.66-0.74Q36.60-1.88 35.48-3.88Q34.36-5.88 34.36-8.40L34.36-8.40Q34.36-10.84 35.58-12.86Q36.80-14.88 38.92-16.06Q41.04-17.24 43.56-17.24L43.56-17.24Q46.80-17.24 48.98-15.34Q51.16-13.44 51.96-10.04L51.96-10.04L38.84-5.44Q39.56-4.20 40.78-3.50Q42-2.80 43.56-2.80L43.56-2.80ZM43.28-14.28Q41-14.28 39.52-12.68Q38.04-11.08 38.04-8.60L38.04-8.60Q38.04-8 38.08-7.68L38.08-7.68L47.72-11.24Q47.12-12.60 46.02-13.44Q44.92-14.28 43.28-14.28L43.28-14.28Z M63.68 0.36Q61.84 0.36 60.18-0.28Q58.52-0.92 57.48-2.16L57.48-2.16L59.08-4.32Q60.08-3.36 61.18-2.84Q62.28-2.32 63.36-2.32L63.36-2.32Q64.68-2.32 65.52-2.84Q66.36-3.36 66.36-4.44L66.36-4.44Q66.36-5.28 65.84-5.80Q65.32-6.32 64.66-6.56Q64-6.80 62.44-7.28L62.44-7.28Q58.20-8.64 58.20-12.12L58.20-12.12Q58.20-14.20 59.74-15.68Q61.28-17.16 64.04-17.16L64.04-17.16Q65.80-17.16 67.16-16.72Q68.52-16.28 69.68-15.32L69.68-15.32L68.20-13.04Q67.56-13.72 66.58-14.12Q65.60-14.52 64.72-14.56L64.72-14.56Q63.60-14.56 62.80-14.02Q62-13.48 62-12.56L62-12.56Q62-11.80 62.52-11.30Q63.04-10.80 63.60-10.58Q64.16-10.36 65.80-9.84L65.80-9.84Q67.84-9.16 68.98-8.08Q70.12-7 70.12-5.16L70.12-5.16Q70.12-2.76 68.44-1.20Q66.76 0.36 63.68 0.36L63.68 0.36Z M77.72-16.56L81.44-16.56L81.44 0L77.72 0L77.72-16.56ZM77.44-22.52Q77.44-23.40 78.12-24Q78.80-24.60 79.68-24.60L79.68-24.60Q80.56-24.60 81.22-24Q81.88-23.40 81.88-22.52L81.88-22.52Q81.88-21.64 81.22-21.04Q80.56-20.44 79.68-20.44L79.68-20.44Q78.80-20.44 78.12-21.04Q77.44-21.64 77.44-22.52L77.44-22.52Z M104.40-16.56L107.80-16.56L107.80 0.12Q107.80 2.40 106.64 4.24Q105.48 6.08 103.34 7.16Q101.20 8.24 98.32 8.24L98.32 8.24Q95.80 8.24 93.98 7.40Q92.16 6.56 90.32 4.92L90.32 4.92L92.52 2.36Q93.88 3.64 95.24 4.30Q96.60 4.96 98.24 4.96L98.24 4.96Q101.00 4.96 102.50 3.64Q104.00 2.32 104.04 0.08L104.04 0.08L104.08-3.04Q103.16-1.48 101.38-0.54Q99.60 0.40 97.28 0.40L97.28 0.40Q95.00 0.40 93.08-0.76Q91.16-1.92 90.02-3.92Q88.88-5.92 88.88-8.36L88.88-8.36Q88.88-10.88 90.06-12.90Q91.24-14.92 93.24-16.08Q95.24-17.24 97.52-17.24L97.52-17.24Q99.64-17.24 101.44-16.40Q103.24-15.56 104.12-14.24L104.12-14.24L104.40-16.56ZM98.36-2.68Q100.48-2.68 102.04-3.84Q103.60-5 104.08-6.88L104.08-6.88L104.08-10.16Q103.52-11.96 101.96-13.06Q100.40-14.16 98.36-14.16L98.36-14.16Q95.92-14.16 94.28-12.56Q92.64-10.96 92.64-8.48L92.64-8.48Q92.64-6.88 93.40-5.56Q94.16-4.24 95.48-3.46Q96.80-2.68 98.36-2.68L98.36-2.68Z M126.96-17.20Q129.28-17.20 130.80-15.82Q132.32-14.44 132.36-12.24L132.36-12.24L132.36 0L128.60 0L128.60-10.96Q128.52-12.36 127.76-13.16Q127.00-13.96 125.48-14L125.48-14Q123.28-14 121.84-12.24Q120.40-10.48 120.40-7.76L120.40-7.76L120.40 0L116.68 0L116.68-16.56L120.04-16.56L120.28-13.36Q121.16-15.16 122.92-16.18Q124.68-17.20 126.96-17.20L126.96-17.20Z M141.20-16.56L144.92-16.56L144.92 0L141.20 0L141.20-16.56ZM140.92-22.52Q140.92-23.40 141.60-24Q142.28-24.60 143.16-24.60L143.16-24.60Q144.04-24.60 144.70-24Q145.36-23.40 145.36-22.52L145.36-22.52Q145.36-21.64 144.70-21.04Q144.04-20.44 143.16-20.44L143.16-20.44Q142.28-20.44 141.60-21.04Q140.92-21.64 140.92-22.52L140.92-22.52Z M164.08-17.20Q166.40-17.20 167.92-15.82Q169.44-14.44 169.48-12.24L169.48-12.24L169.48 0L165.72 0L165.72-10.96Q165.64-12.36 164.88-13.16Q164.12-13.96 162.60-14L162.60-14Q160.40-14 158.96-12.24Q157.52-10.48 157.52-7.76L157.52-7.76L157.52 0L153.80 0L153.80-16.56L157.16-16.56L157.40-13.36Q158.28-15.16 160.04-16.18Q161.80-17.20 164.08-17.20L164.08-17.20Z M192.40-16.56L195.80-16.56L195.80 0.12Q195.80 2.40 194.64 4.24Q193.48 6.08 191.34 7.16Q189.20 8.24 186.32 8.24L186.32 8.24Q183.80 8.24 181.98 7.40Q180.16 6.56 178.32 4.92L178.32 4.92L180.52 2.36Q181.88 3.64 183.24 4.30Q184.60 4.96 186.24 4.96L186.24 4.96Q189.00 4.96 190.50 3.64Q192.00 2.32 192.04 0.08L192.04 0.08L192.08-3.04Q191.16-1.48 189.38-0.54Q187.60 0.40 185.28 0.40L185.28 0.40Q183.00 0.40 181.08-0.76Q179.16-1.92 178.02-3.92Q176.88-5.92 176.88-8.36L176.88-8.36Q176.88-10.88 178.06-12.90Q179.24-14.92 181.24-16.08Q183.24-17.24 185.52-17.24L185.52-17.24Q187.64-17.24 189.44-16.40Q191.24-15.56 192.12-14.24L192.12-14.24L192.40-16.56ZM186.36-2.68Q188.48-2.68 190.04-3.84Q191.60-5 192.08-6.88L192.08-6.88L192.08-10.16Q191.52-11.96 189.96-13.06Q188.40-14.16 186.36-14.16L186.36-14.16Q183.92-14.16 182.28-12.56Q180.64-10.96 180.64-8.48L180.64-8.48Q180.64-6.88 181.40-5.56Q182.16-4.24 183.48-3.46Q184.80-2.68 186.36-2.68L186.36-2.68Z M255.20-28.80L243.80 1.28L237.04-16L229.64 1.36L218.12-28.80L222.64-28.80L230.12-7.76L235.12-20.88L232.04-28.80L235.88-28.80L243.92-8.20L251.04-28.80L255.20-28.80Z M266.44-2.80Q268.52-2.80 270.48-4.24L270.48-4.24L272.20-1.48Q270.88-0.60 269.34-0.10Q267.80 0.40 266.36 0.40L266.36 0.40Q263.60 0.40 261.54-0.74Q259.48-1.88 258.36-3.88Q257.24-5.88 257.24-8.40L257.24-8.40Q257.24-10.84 258.46-12.86Q259.68-14.88 261.80-16.06Q263.92-17.24 266.44-17.24L266.44-17.24Q269.68-17.24 271.86-15.34Q274.04-13.44 274.84-10.04L274.84-10.04L261.72-5.44Q262.44-4.20 263.66-3.50Q264.88-2.80 266.44-2.80L266.44-2.80ZM266.16-14.28Q263.88-14.28 262.40-12.68Q260.92-11.08 260.92-8.60L260.92-8.60Q260.92-8 260.96-7.68L260.96-7.68L270.60-11.24Q270.00-12.60 268.90-13.44Q267.80-14.28 266.16-14.28L266.16-14.28Z M292.48-17.24Q294.72-17.24 296.58-16.16Q298.44-15.08 299.52-13.12Q300.60-11.16 300.60-8.56L300.60-8.56Q300.60-5.84 299.44-3.80Q298.28-1.76 296.30-0.68Q294.32 0.40 292.00 0.40L292.00 0.40Q289.96 0.40 288.30-0.40Q286.64-1.20 285.60-2.56L285.60-2.56L285.60 0L281.88 0L281.88-31L285.60-31L285.60-14.36Q286.64-15.68 288.46-16.46Q290.28-17.24 292.48-17.24L292.48-17.24ZM291.20-2.80Q293.64-2.80 295.22-4.44Q296.80-6.08 296.80-8.56L296.80-8.56Q296.80-10.16 296.06-11.46Q295.32-12.76 294.04-13.52Q292.76-14.28 291.20-14.28L291.20-14.28Q289.16-14.28 287.62-13.18Q286.08-12.08 285.60-10.28L285.60-10.28L285.60-6.92Q286.08-5.12 287.60-3.96Q289.12-2.80 291.20-2.80L291.20-2.80Z M358.52-28.80L347.12 1.28L340.36-16L332.96 1.36L321.44-28.80L325.96-28.80L333.44-7.76L338.44-20.88L335.36-28.80L339.20-28.80L347.24-8.20L354.36-28.80L358.52-28.80Z M360.56-8.44Q360.56-10.88 361.74-12.90Q362.92-14.92 365.02-16.08Q367.12-17.24 369.76-17.24L369.76-17.24Q372.40-17.24 374.46-16.08Q376.52-14.92 377.66-12.92Q378.80-10.92 378.80-8.44L378.80-8.44Q378.80-5.96 377.66-3.94Q376.52-1.92 374.44-0.76Q372.36 0.40 369.68 0.40L369.68 0.40Q367.08 0.40 365.00-0.70Q362.92-1.80 361.74-3.80Q360.56-5.80 360.56-8.44L360.56-8.44ZM364.32-8.40Q364.32-6.84 365.02-5.52Q365.72-4.20 366.94-3.44Q368.16-2.68 369.64-2.68L369.64-2.68Q371.96-2.68 373.48-4.32Q375.00-5.96 375.00-8.40L375.00-8.40Q375.00-10.84 373.48-12.50Q371.96-14.16 369.64-14.16L369.64-14.16Q368.12-14.16 366.92-13.38Q365.72-12.60 365.02-11.28Q364.32-9.96 364.32-8.40L364.32-8.40Z M396.48-17.20Q398.80-17.20 400.32-15.82Q401.84-14.44 401.88-12.24L401.88-12.24L401.88 0L398.12 0L398.12-10.96Q398.04-12.36 397.28-13.16Q396.52-13.96 395.00-14L395.00-14Q392.80-14 391.36-12.24Q389.92-10.48 389.92-7.76L389.92-7.76L389.92 0L386.20 0L386.20-16.56L389.56-16.56L389.80-13.36Q390.68-15.16 392.44-16.18Q394.20-17.20 396.48-17.20L396.48-17.20Z M424.28-31L428.00-31L428.00 0L424.24 0L424.24-2.60Q423.04-1.20 421.30-0.40Q419.56 0.40 417.48 0.40L417.48 0.40Q415.16 0.40 413.28-0.72Q411.40-1.84 410.34-3.86Q409.28-5.88 409.28-8.52L409.28-8.52Q409.28-11.20 410.40-13.18Q411.52-15.16 413.48-16.20Q415.44-17.24 417.92-17.24L417.92-17.24Q419.80-17.24 421.54-16.46Q423.28-15.68 424.28-14.32L424.28-14.32L424.28-31ZM418.64-2.80Q420.80-2.80 422.30-3.96Q423.80-5.12 424.24-7.08L424.24-7.08L424.24-10.20Q423.76-12 422.20-13.14Q420.64-14.28 418.64-14.28L418.64-14.28Q417.12-14.28 415.84-13.54Q414.56-12.80 413.80-11.50Q413.04-10.20 413.04-8.56L413.04-8.56Q413.04-6.96 413.80-5.64Q414.56-4.32 415.84-3.56Q417.12-2.80 418.64-2.80L418.64-2.80Z M444.60-2.80Q446.68-2.80 448.64-4.24L448.64-4.24L450.36-1.48Q449.04-0.60 447.50-0.10Q445.96 0.40 444.52 0.40L444.52 0.40Q441.76 0.40 439.70-0.74Q437.64-1.88 436.52-3.88Q435.40-5.88 435.40-8.40L435.40-8.40Q435.40-10.84 436.62-12.86Q437.84-14.88 439.96-16.06Q442.08-17.24 444.60-17.24L444.60-17.24Q447.84-17.24 450.02-15.34Q452.20-13.44 453.00-10.04L453.00-10.04L439.88-5.44Q440.60-4.20 441.82-3.50Q443.04-2.80 444.60-2.80L444.60-2.80ZM444.32-14.28Q442.04-14.28 440.56-12.68Q439.08-11.08 439.08-8.60L439.08-8.60Q439.08-8 439.12-7.68L439.12-7.68L448.76-11.24Q448.16-12.60 447.06-13.44Q445.96-14.28 444.32-14.28L444.32-14.28Z M463.64-12.64Q464.28-14 465.46-15.04Q466.64-16.08 467.96-16.64Q469.28-17.20 470.28-17.24L470.28-17.24L470.12-13.52Q468.32-13.60 466.86-12.80Q465.40-12 464.58-10.58Q463.76-9.16 463.76-7.56L463.76-7.56L463.76 0L460.04 0L460.04-16.56L463.36-16.56L463.64-12.64Z M482.16 0.36Q480.32 0.36 478.66-0.28Q477.00-0.92 475.96-2.16L475.96-2.16L477.56-4.32Q478.56-3.36 479.66-2.84Q480.76-2.32 481.84-2.32L481.84-2.32Q483.16-2.32 484.00-2.84Q484.84-3.36 484.84-4.44L484.84-4.44Q484.84-5.28 484.32-5.80Q483.80-6.32 483.14-6.56Q482.48-6.80 480.92-7.28L480.92-7.28Q476.68-8.64 476.68-12.12L476.68-12.12Q476.68-14.20 478.22-15.68Q479.76-17.16 482.52-17.16L482.52-17.16Q484.28-17.16 485.64-16.72Q487.00-16.28 488.16-15.32L488.16-15.32L486.68-13.04Q486.04-13.72 485.06-14.12Q484.08-14.52 483.20-14.56L483.20-14.56Q482.08-14.56 481.28-14.02Q480.48-13.48 480.48-12.56L480.48-12.56Q480.48-11.80 481.00-11.30Q481.52-10.80 482.08-10.58Q482.64-10.36 484.28-9.84L484.28-9.84Q486.32-9.16 487.46-8.08Q488.60-7 488.60-5.16L488.60-5.16Q488.60-2.76 486.92-1.20Q485.24 0.36 482.16 0.36L482.16 0.36Z"/></g>
</svg>
</g><g opacity="1" transform="rotate(0 249.2863 250.7103)">
<svg width="368.6925" height="50" x="249.2863" y="250.7103" version="1.1" preserveAspectRatio="none" viewBox="2.9102 -32.3242 241.6015 32.7539">
  <g transform="matrix(1 0 0 1 0 0)" class="companyName"><path id="id-D6z1nYkh8" d="M6.66-26.19L6.66-26.19Q5.80-26.19 5.11-26.44Q4.41-26.68 3.93-27.10Q3.44-27.52 3.17-28.08Q2.91-28.63 2.91-29.26L2.91-29.26Q2.91-29.90 3.17-30.46Q3.44-31.02 3.93-31.43Q4.41-31.84 5.11-32.08Q5.80-32.32 6.66-32.32L6.66-32.32Q7.54-32.32 8.23-32.08Q8.93-31.84 9.41-31.43Q9.90-31.02 10.17-30.46Q10.43-29.90 10.43-29.26L10.43-29.26Q10.43-28.63 10.17-28.08Q9.90-27.52 9.41-27.10Q8.93-26.68 8.23-26.44Q7.54-26.19 6.66-26.19ZM3.77 0L3.77-23.05L9.55-23.05L9.55 0L3.77 0Z M17.70 0L17.70-30.53L23.89-30.53L34.98-19.39L46.07-30.53L52.27-30.53L52.27 0L46.07 0L46.07-21.95L34.98-11.27L23.89-21.95L23.89 0L17.70 0Z M59.80-12.97L59.80-30.53L66.00-30.53L66.00-13.71Q66.00-11.64 66.56-10.03Q67.13-8.42 68.25-7.30Q69.38-6.19 71.04-5.62Q72.70-5.04 74.90-5.04L74.90-5.04Q77.09-5.04 78.76-5.62Q80.43-6.19 81.55-7.30Q82.68-8.42 83.24-10.03Q83.81-11.64 83.81-13.71L83.81-13.71L83.81-30.53L90-30.53L90-12.97Q90-9.96 88.98-7.50Q87.97-5.04 86.04-3.28Q84.10-1.52 81.30-0.57Q78.50 0.39 74.90 0.39L74.90 0.39Q71.31 0.39 68.51-0.57Q65.70-1.52 63.77-3.28Q61.84-5.04 60.82-7.50Q59.80-9.96 59.80-12.97L59.80-12.97Z M106.74 0L106.74-25.10L95.47-25.10L95.47-30.53L124.20-30.53L124.20-25.10L112.93-25.10L112.93 0L106.74 0Z M129.00-15.35L129.00-15.35Q129.00-18.81 130.27-21.68Q131.54-24.55 133.84-26.61Q136.13-28.67 139.35-29.80Q142.56-30.94 146.46-30.94L146.46-30.94Q150.35-30.94 153.57-29.80Q156.80-28.67 159.09-26.61Q161.39-24.55 162.66-21.68Q163.93-18.81 163.93-15.35L163.93-15.35Q163.93-11.88 162.66-8.97Q161.39-6.07 159.09-3.98Q156.80-1.89 153.57-0.73Q150.35 0.43 146.46 0.43L146.46 0.43Q142.56 0.43 139.35-0.73Q136.13-1.89 133.84-3.98Q131.54-6.07 130.27-8.97Q129.00-11.88 129.00-15.35ZM135.20-15.35L135.20-15.35Q135.20-12.99 136.04-11.09Q136.89-9.20 138.41-7.86Q139.92-6.52 141.98-5.80Q144.04-5.08 146.46-5.08L146.46-5.08Q148.89-5.08 150.95-5.80Q153.01-6.52 154.51-7.86Q156.02-9.20 156.88-11.09Q157.73-12.99 157.73-15.35L157.73-15.35Q157.73-17.71 156.88-19.59Q156.02-21.46 154.51-22.76Q153.01-24.06 150.95-24.75Q148.89-25.43 146.46-25.43L146.46-25.43Q144.04-25.43 141.98-24.75Q139.92-24.06 138.41-22.76Q136.89-21.46 136.04-19.59Q135.20-17.71 135.20-15.35Z M170.80 0L170.80-30.53L176.99-30.53L176.99-5.43L194.75-5.43L194.75 0L170.80 0Z M199.96 0L199.96-30.53L206.19-30.53L206.19 0L199.96 0Z M214.08 0L214.08-30.53L230.39-30.53Q233.38-30.53 235.60-29.89Q237.81-29.26 239.28-28.14Q240.74-27.03 241.46-25.50Q242.17-23.96 242.17-22.19L242.17-22.19Q242.17-19.28 240.33-17.09L240.33-17.09Q242.44-15.84 243.48-13.85Q244.51-11.86 244.51-9.32L244.51-9.32Q244.51-7.19 243.80-5.47Q243.09-3.75 241.63-2.53Q240.18-1.31 237.96-0.65Q235.74 0 232.73 0L232.73 0L214.08 0ZM220.27-18.81L232.77-18.81Q233.57-18.81 234.34-18.75L234.34-18.75Q235.64-20 235.64-21.60L235.64-21.60Q235.64-23.26 234.35-24.17Q233.05-25.08 230.55-25.08L230.55-25.08L220.27-25.08L220.27-18.81ZM220.27-5.39L232.89-5.39Q235.39-5.39 236.69-6.46Q237.99-7.54 237.99-9.49L237.99-9.49Q237.99-11.45 236.69-12.54Q235.39-13.63 232.89-13.63L232.89-13.63L220.27-13.63L220.27-5.39Z"/></g>
</svg>
</g>
<g opacity="1" transform="rotate(0 359.8941 182.6725)">
<svg width="147.477" height="38.0378" x="359.8941" y="182.6725" version="1.1" preserveAspectRatio="none" viewBox="20.432830810546875 79.5117416381836 159.06716918945312 41.027137756347656">
  <g transform="matrix(1 0 0 1 0 0)"><g><path d="M162.2 84.3c-15.3 7.2-51.4 20.2-67.7 23.9-20.6 4.7-56.9 7.6-56.9 4.2 0-1.2 1.5-2.8 3.2-3.7 1.8-.7 3.2-2.8 3.2-4.9 0-5.4-15.5-4.7-20.2.9-6.3 7.6-3.7 12.6 7.3 14.9 12.3 2.3 45 .2 65.2-4.4 29.4-6.5 83.2-28.3 83.2-33.4 0-3.8-6.3-2.8-17.3 2.5z" data-color="1" class="icon1"></path></g></g>
</svg>
</g>
</svg></svg>
