<svg version="1.1" preserveAspectRatio="none" xmlns="http://www.w3.org/2000/svg" width="500" height="500" viewBox="0 0 500 500"><rect width="100%" height="100%" fill="#0F222D" fill-opacity="1"/><svg viewBox="215.0086 85.3631 437.248 259.3472" width="333" height="197.51403688524587" x="83.5px" y="151.243px" xmlns="http://www.w3.org/2000/svg" xmlns:xlink="http://www.w3.org/1999/xlink" preserveAspectRatio="none"><defs></defs><style>.aDFQBjvS2colors-3 {fill:#21303A;fill-opacity:1;}.aDFQBjvS2colors-4 {fill:#51819E;fill-opacity:1;}.aDFQBjvS2colors-5 {fill:#064B75;fill-opacity:1;}.aDFQBjvS2colors-6 {fill:#ACA58C;fill-opacity:1;}.aDFQBjvS2colors-7 {fill:#3E5563;fill-opacity:1;}.companyName {fill:#EBE7D9;fill-opacity:1;}.icon1 {fill:#FFF5D0;fill-opacity:1;}.icon2 {fill:#BA3521;fill-opacity:1;}.icon3 {fill:#F55139;fill-opacity:1;}.icon3-str {stroke:#F55139;stroke-opacity:1;}.text {fill:#EBE7D9;fill-opacity:1;}</style><g opacity="1" transform="rotate(0 215.0086 324.7103)">
<svg width="437.248" height="20" x="215.0086" y="324.7103" version="1.1" preserveAspectRatio="none" viewBox="0 -31 857.76 39.24">
  <g transform="matrix(1 0 0 1 0 0)" class="text"><path id="id-6izo4zJp40" d="M19.20-28.92L23.08-28.92L23.08 0L19.20 0L19.20-28.92Z M34.24 0L34.24-13.24L31.40-13.24L31.40-16.60L34.24-16.60L34.24-23.56Q34.24-27.16 35.88-29.08Q37.52-31 40.68-31L40.68-31Q41.56-31 42.56-30.74Q43.56-30.48 44.32-30L44.32-30L42.72-27.28Q42.12-27.92 41.04-27.92L41.04-27.92Q39.52-27.92 38.74-26.88Q37.96-25.84 37.96-23.52L37.96-23.52L37.96-16.60L43.24-16.60L43.24-13.24L37.96-13.24L37.96 0L34.24 0Z M84.08-28.92L88.84-28.92L78-9.64L78 0L74.12 0L74.12-9.64L63.40-28.92L68.20-28.92L76.16-14.04L84.08-28.92Z M89.88-8.44Q89.88-10.88 91.06-12.90Q92.24-14.92 94.34-16.08Q96.44-17.24 99.08-17.24L99.08-17.24Q101.72-17.24 103.78-16.08Q105.84-14.92 106.98-12.92Q108.12-10.92 108.12-8.44L108.12-8.44Q108.12-5.96 106.98-3.94Q105.84-1.92 103.76-0.76Q101.68 0.40 99.00 0.40L99.00 0.40Q96.40 0.40 94.32-0.70Q92.24-1.80 91.06-3.80Q89.88-5.80 89.88-8.44L89.88-8.44ZM93.64-8.40Q93.64-6.84 94.34-5.52Q95.04-4.20 96.26-3.44Q97.48-2.68 98.96-2.68L98.96-2.68Q101.28-2.68 102.80-4.32Q104.32-5.96 104.32-8.40L104.32-8.40Q104.32-10.84 102.80-12.50Q101.28-14.16 98.96-14.16L98.96-14.16Q97.44-14.16 96.24-13.38Q95.04-12.60 94.34-11.28Q93.64-9.96 93.64-8.40L93.64-8.40Z M127.20-16.56L130.92-16.56L130.92 0L127.56 0L127.32-3.16Q126.48-1.48 124.72-0.42Q122.96 0.64 120.80 0.64L120.80 0.64Q118.52 0.64 117.06-0.74Q115.60-2.12 115.52-4.32L115.52-4.32L115.52-16.56L119.24-16.56L119.24-5.64Q119.32-4.24 120.06-3.42Q120.80-2.60 122.28-2.56L122.28-2.56Q123.64-2.56 124.76-3.38Q125.88-4.20 126.54-5.64Q127.20-7.08 127.20-8.84L127.20-8.84L127.20-16.56Z M155.76 0L155.76-28.92L163.68-28.92Q169.08-28.92 172.62-26.78Q176.16-24.64 177.78-21.26Q179.40-17.88 179.40-14.12L179.40-14.12Q179.40-9.92 177.44-6.70Q175.48-3.48 172.20-1.74Q168.92 0 165.08 0L165.08 0L155.76 0ZM159.64-3.76L164.32-3.76Q167.52-3.76 170.04-5.02Q172.56-6.28 173.98-8.68Q175.40-11.08 175.40-14.40L175.40-14.40Q175.40-17.80 173.92-20.24Q172.44-22.68 169.98-23.94Q167.52-25.20 164.68-25.20L164.68-25.20L159.64-25.20L159.64-3.76Z M185.96-8.44Q185.96-10.88 187.14-12.90Q188.32-14.92 190.42-16.08Q192.52-17.24 195.16-17.24L195.16-17.24Q197.80-17.24 199.86-16.08Q201.92-14.92 203.06-12.92Q204.20-10.92 204.20-8.44L204.20-8.44Q204.20-5.96 203.06-3.94Q201.92-1.92 199.84-0.76Q197.76 0.40 195.08 0.40L195.08 0.40Q192.48 0.40 190.40-0.70Q188.32-1.80 187.14-3.80Q185.96-5.80 185.96-8.44L185.96-8.44ZM189.72-8.40Q189.72-6.84 190.42-5.52Q191.12-4.20 192.34-3.44Q193.56-2.68 195.04-2.68L195.04-2.68Q197.36-2.68 198.88-4.32Q200.40-5.96 200.40-8.40L200.40-8.40Q200.40-10.84 198.88-12.50Q197.36-14.16 195.04-14.16L195.04-14.16Q193.52-14.16 192.32-13.38Q191.12-12.60 190.42-11.28Q189.72-9.96 189.72-8.40L189.72-8.40Z M248.88-28.92L252.76-28.92L252.76 0.96L252.64 0.96L231.40-20.60L231.48 0L227.56 0L227.56-29.80L227.76-29.80L248.96-8L248.88-28.92Z M261.12-8.44Q261.12-10.88 262.30-12.90Q263.48-14.92 265.58-16.08Q267.68-17.24 270.32-17.24L270.32-17.24Q272.96-17.24 275.02-16.08Q277.08-14.92 278.22-12.92Q279.36-10.92 279.36-8.44L279.36-8.44Q279.36-5.96 278.22-3.94Q277.08-1.92 275.00-0.76Q272.92 0.40 270.24 0.40L270.24 0.40Q267.64 0.40 265.56-0.70Q263.48-1.80 262.30-3.80Q261.12-5.80 261.12-8.44L261.12-8.44ZM264.88-8.40Q264.88-6.84 265.58-5.52Q266.28-4.20 267.50-3.44Q268.72-2.68 270.20-2.68L270.20-2.68Q272.52-2.68 274.04-4.32Q275.56-5.96 275.56-8.40L275.56-8.40Q275.56-10.84 274.04-12.50Q272.52-14.16 270.20-14.16L270.20-14.16Q268.68-14.16 267.48-13.38Q266.28-12.60 265.58-11.28Q264.88-9.96 264.88-8.40L264.88-8.40Z M288.36-23.84L292.12-23.84L292.12-16.52L296.64-16.52L296.64-13.56L292.12-13.56L292.12 0L288.36 0L288.36-13.56L285.32-13.56L285.32-16.52L288.36-16.52L288.36-23.84Z M313.84-17.20Q316.16-17.20 317.68-15.82Q319.20-14.44 319.24-12.24L319.24-12.24L319.24 0L315.48 0L315.48-10.96Q315.40-12.36 314.64-13.16Q313.88-13.96 312.36-14L312.36-14Q310.92-14 309.76-13.20Q308.60-12.40 307.94-10.96Q307.28-9.52 307.28-7.76L307.28-7.76L307.28 0L303.56 0L303.56-31L307.20-31L307.20-13.56Q308.12-15.20 309.86-16.20Q311.60-17.20 313.84-17.20L313.84-17.20Z M328.08-16.56L331.80-16.56L331.80 0L328.08 0L328.08-16.56ZM327.80-22.52Q327.80-23.40 328.48-24Q329.16-24.60 330.04-24.60L330.04-24.60Q330.92-24.60 331.58-24Q332.24-23.40 332.24-22.52L332.24-22.52Q332.24-21.64 331.58-21.04Q330.92-20.44 330.04-20.44L330.04-20.44Q329.16-20.44 328.48-21.04Q327.80-21.64 327.80-22.52L327.80-22.52Z M350.96-17.20Q353.28-17.20 354.80-15.82Q356.32-14.44 356.36-12.24L356.36-12.24L356.36 0L352.60 0L352.60-10.96Q352.52-12.36 351.76-13.16Q351.00-13.96 349.48-14L349.48-14Q347.28-14 345.84-12.24Q344.40-10.48 344.40-7.76L344.40-7.76L344.40 0L340.68 0L340.68-16.56L344.04-16.56L344.28-13.36Q345.16-15.16 346.92-16.18Q348.68-17.20 350.96-17.20L350.96-17.20Z M379.28-16.56L382.68-16.56L382.68 0.12Q382.68 2.40 381.52 4.24Q380.36 6.08 378.22 7.16Q376.08 8.24 373.20 8.24L373.20 8.24Q370.68 8.24 368.86 7.40Q367.04 6.56 365.20 4.92L365.20 4.92L367.40 2.36Q368.76 3.64 370.12 4.30Q371.48 4.96 373.12 4.96L373.12 4.96Q375.88 4.96 377.38 3.64Q378.88 2.32 378.92 0.08L378.92 0.08L378.96-3.04Q378.04-1.48 376.26-0.54Q374.48 0.40 372.16 0.40L372.16 0.40Q369.88 0.40 367.96-0.76Q366.04-1.92 364.90-3.92Q363.76-5.92 363.76-8.36L363.76-8.36Q363.76-10.88 364.94-12.90Q366.12-14.92 368.12-16.08Q370.12-17.24 372.40-17.24L372.40-17.24Q374.52-17.24 376.32-16.40Q378.12-15.56 379.00-14.24L379.00-14.24L379.28-16.56ZM373.24-2.68Q375.36-2.68 376.92-3.84Q378.48-5 378.96-6.88L378.96-6.88L378.96-10.16Q378.40-11.96 376.84-13.06Q375.28-14.16 373.24-14.16L373.24-14.16Q370.80-14.16 369.16-12.56Q367.52-10.96 367.52-8.48L367.52-8.48Q367.52-6.88 368.28-5.56Q369.04-4.24 370.36-3.46Q371.68-2.68 373.24-2.68L373.24-2.68Z M410.00-3.52L407.68 2.08L406.52 4.88L403.48 4.88L404.52 2.08Q406.32-2.76 406.60-3.52L406.60-3.52L410.00-3.52Z M454.40-28.92L458.28-28.92L458.28 0.96L458.16 0.96L436.92-20.60L437.00 0L433.08 0L433.08-29.80L433.28-29.80L454.48-8L454.40-28.92Z M466.64-8.44Q466.64-10.88 467.82-12.90Q469.00-14.92 471.10-16.08Q473.20-17.24 475.84-17.24L475.84-17.24Q478.48-17.24 480.54-16.08Q482.60-14.92 483.74-12.92Q484.88-10.92 484.88-8.44L484.88-8.44Q484.88-5.96 483.74-3.94Q482.60-1.92 480.52-0.76Q478.44 0.40 475.76 0.40L475.76 0.40Q473.16 0.40 471.08-0.70Q469.00-1.80 467.82-3.80Q466.64-5.80 466.64-8.44L466.64-8.44ZM470.40-8.40Q470.40-6.84 471.10-5.52Q471.80-4.20 473.02-3.44Q474.24-2.68 475.72-2.68L475.72-2.68Q478.04-2.68 479.56-4.32Q481.08-5.96 481.08-8.40L481.08-8.40Q481.08-10.84 479.56-12.50Q478.04-14.16 475.72-14.16L475.72-14.16Q474.20-14.16 473.00-13.38Q471.80-12.60 471.10-11.28Q470.40-9.96 470.40-8.40L470.40-8.40Z M493.88-23.84L497.64-23.84L497.64-16.52L502.16-16.52L502.16-13.56L497.64-13.56L497.64 0L493.88 0L493.88-13.56L490.84-13.56L490.84-16.52L493.88-16.52L493.88-23.84Z M519.36-17.20Q521.68-17.20 523.20-15.82Q524.72-14.44 524.76-12.24L524.76-12.24L524.76 0L521.00 0L521.00-10.96Q520.92-12.36 520.16-13.16Q519.40-13.96 517.88-14L517.88-14Q516.44-14 515.28-13.20Q514.12-12.40 513.46-10.96Q512.80-9.52 512.80-7.76L512.80-7.76L512.80 0L509.08 0L509.08-31L512.72-31L512.72-13.56Q513.64-15.20 515.38-16.20Q517.12-17.20 519.36-17.20L519.36-17.20Z M533.60-16.56L537.32-16.56L537.32 0L533.60 0L533.60-16.56ZM533.32-22.52Q533.32-23.40 534.00-24Q534.68-24.60 535.56-24.60L535.56-24.60Q536.44-24.60 537.10-24Q537.76-23.40 537.76-22.52L537.76-22.52Q537.76-21.64 537.10-21.04Q536.44-20.44 535.56-20.44L535.56-20.44Q534.68-20.44 534.00-21.04Q533.32-21.64 533.32-22.52L533.32-22.52Z M556.48-17.20Q558.80-17.20 560.32-15.82Q561.84-14.44 561.88-12.24L561.88-12.24L561.88 0L558.12 0L558.12-10.96Q558.04-12.36 557.28-13.16Q556.52-13.96 555.00-14L555.00-14Q552.80-14 551.36-12.24Q549.92-10.48 549.92-7.76L549.92-7.76L549.92 0L546.20 0L546.20-16.56L549.56-16.56L549.80-13.36Q550.68-15.16 552.44-16.18Q554.20-17.20 556.48-17.20L556.48-17.20Z M584.80-16.56L588.20-16.56L588.20 0.12Q588.20 2.40 587.04 4.24Q585.88 6.08 583.74 7.16Q581.60 8.24 578.72 8.24L578.72 8.24Q576.20 8.24 574.38 7.40Q572.56 6.56 570.72 4.92L570.72 4.92L572.92 2.36Q574.28 3.64 575.64 4.30Q577.00 4.96 578.64 4.96L578.64 4.96Q581.40 4.96 582.90 3.64Q584.40 2.32 584.44 0.08L584.44 0.08L584.48-3.04Q583.56-1.48 581.78-0.54Q580.00 0.40 577.68 0.40L577.68 0.40Q575.40 0.40 573.48-0.76Q571.56-1.92 570.42-3.92Q569.28-5.92 569.28-8.36L569.28-8.36Q569.28-10.88 570.46-12.90Q571.64-14.92 573.64-16.08Q575.64-17.24 577.92-17.24L577.92-17.24Q580.04-17.24 581.84-16.40Q583.64-15.56 584.52-14.24L584.52-14.24L584.80-16.56ZM578.76-2.68Q580.88-2.68 582.44-3.84Q584.00-5 584.48-6.88L584.48-6.88L584.48-10.16Q583.92-11.96 582.36-13.06Q580.80-14.16 578.76-14.16L578.76-14.16Q576.32-14.16 574.68-12.56Q573.04-10.96 573.04-8.48L573.04-8.48Q573.04-6.88 573.80-5.56Q574.56-4.24 575.88-3.46Q577.20-2.68 578.76-2.68L578.76-2.68Z M647.60-28.80L636.20 1.28L629.44-16L622.04 1.36L610.52-28.80L615.04-28.80L622.52-7.76L627.52-20.88L624.44-28.80L628.28-28.80L636.32-8.20L643.44-28.80L647.60-28.80Z M654.28-16.56L658.00-16.56L658.00 0L654.28 0L654.28-16.56ZM654.00-22.52Q654.00-23.40 654.68-24Q655.36-24.60 656.24-24.60L656.24-24.60Q657.12-24.60 657.78-24Q658.44-23.40 658.44-22.52L658.44-22.52Q658.44-21.64 657.78-21.04Q657.12-20.44 656.24-20.44L656.24-20.44Q655.36-20.44 654.68-21.04Q654.00-21.64 654.00-22.52L654.00-22.52Z M666.88-31L670.60-31L670.60 0L666.88 0L666.88-31Z M679.48-31L683.20-31L683.20 0L679.48 0L679.48-31Z M730.96-28.92L730.96 0L727.08 0L727.08-12.68L711.92-12.68L711.92 0L708.04 0L708.04-28.92L711.92-28.92L711.92-16.40L727.08-16.40L727.08-28.92L730.96-28.92Z M754.32-16.56L757.76-16.56L757.76 0L754.04 0L754.04-2.72Q753.16-1.56 751.48-0.58Q749.80 0.40 747.68 0.40L747.68 0.40Q745.32 0.40 743.42-0.62Q741.52-1.64 740.42-3.60Q739.32-5.56 739.32-8.28L739.32-8.28Q739.32-11 740.46-13.02Q741.60-15.04 743.54-16.14Q745.48-17.24 747.84-17.24L747.84-17.24Q749.96-17.24 751.52-16.32Q753.08-15.40 754.04-13.92L754.04-13.92L754.32-16.56ZM748.68-2.68Q750.72-2.68 752.18-3.82Q753.64-4.96 754.04-6.92L754.04-6.92L754.04-10.20Q753.56-11.96 752.04-13.06Q750.52-14.16 748.56-14.16L748.56-14.16Q747.08-14.16 745.82-13.44Q744.56-12.72 743.82-11.42Q743.08-10.12 743.08-8.48L743.08-8.48Q743.08-6.88 743.84-5.56Q744.60-4.24 745.88-3.46Q747.16-2.68 748.68-2.68L748.68-2.68Z M777.12-17.24Q779.44-17.24 781.32-16.12Q783.20-15 784.28-12.98Q785.36-10.96 785.36-8.32L785.36-8.32Q785.36-5.72 784.20-3.74Q783.04-1.76 781.00-0.68Q778.96 0.40 776.44 0.40L776.44 0.40Q774.64 0.40 773.00-0.38Q771.36-1.16 770.36-2.48L770.36-2.48L770.36 7.96L766.64 7.96L766.64-16.84L769.88-16.84L770.20-14.04Q771.48-15.48 773.26-16.36Q775.04-17.24 777.12-17.24L777.12-17.24ZM775.72-2.60Q777.28-2.60 778.62-3.34Q779.96-4.08 780.76-5.38Q781.56-6.68 781.56-8.28L781.56-8.28Q781.56-9.92 780.82-11.24Q780.08-12.56 778.80-13.32Q777.52-14.08 775.96-14.08L775.96-14.08Q773.84-14.08 772.34-12.90Q770.84-11.72 770.36-9.72L770.36-9.72L770.36-6.96Q770.68-5.04 772.18-3.82Q773.68-2.60 775.72-2.60L775.72-2.60Z M803.24-17.24Q805.56-17.24 807.44-16.12Q809.32-15 810.40-12.98Q811.48-10.96 811.48-8.32L811.48-8.32Q811.48-5.72 810.32-3.74Q809.16-1.76 807.12-0.68Q805.08 0.40 802.56 0.40L802.56 0.40Q800.76 0.40 799.12-0.38Q797.48-1.16 796.48-2.48L796.48-2.48L796.48 7.96L792.76 7.96L792.76-16.84L796.00-16.84L796.32-14.04Q797.60-15.48 799.38-16.36Q801.16-17.24 803.24-17.24L803.24-17.24ZM801.84-2.60Q803.40-2.60 804.74-3.34Q806.08-4.08 806.88-5.38Q807.68-6.68 807.68-8.28L807.68-8.28Q807.68-9.92 806.94-11.24Q806.20-12.56 804.92-13.32Q803.64-14.08 802.08-14.08L802.08-14.08Q799.96-14.08 798.46-12.90Q796.96-11.72 796.48-9.72L796.48-9.72L796.48-6.96Q796.80-5.04 798.30-3.82Q799.80-2.60 801.84-2.60L801.84-2.60Z M826.64-2.80Q828.72-2.80 830.68-4.24L830.68-4.24L832.40-1.48Q831.08-0.60 829.54-0.10Q828.00 0.40 826.56 0.40L826.56 0.40Q823.80 0.40 821.74-0.74Q819.68-1.88 818.56-3.88Q817.44-5.88 817.44-8.40L817.44-8.40Q817.44-10.84 818.66-12.86Q819.88-14.88 822.00-16.06Q824.12-17.24 826.64-17.24L826.64-17.24Q829.88-17.24 832.06-15.34Q834.24-13.44 835.04-10.04L835.04-10.04L821.92-5.44Q822.64-4.20 823.86-3.50Q825.08-2.80 826.64-2.80L826.64-2.80ZM826.36-14.28Q824.08-14.28 822.60-12.68Q821.12-11.08 821.12-8.60L821.12-8.60Q821.12-8 821.16-7.68L821.16-7.68L830.80-11.24Q830.20-12.60 829.10-13.44Q828.00-14.28 826.36-14.28L826.36-14.28Z M852.36-17.20Q854.68-17.20 856.20-15.82Q857.72-14.44 857.76-12.24L857.76-12.24L857.76 0L854.00 0L854.00-10.96Q853.92-12.36 853.16-13.16Q852.40-13.96 850.88-14L850.88-14Q848.68-14 847.24-12.24Q845.80-10.48 845.80-7.76L845.80-7.76L845.80 0L842.08 0L842.08-16.56L845.44-16.56L845.68-13.36Q846.56-15.16 848.32-16.18Q850.08-17.20 852.36-17.20L852.36-17.20Z"/></g>
</svg>
</g><g opacity="1" transform="rotate(0 249.2863 250.7103)">
<svg width="368.6925" height="50" x="249.2863" y="250.7103" version="1.1" preserveAspectRatio="none" viewBox="2.9102 -32.3242 241.6015 32.7539">
  <g transform="matrix(1 0 0 1 0 0)" class="companyName"><path id="id-D6z1nYkh8" d="M6.66-26.19L6.66-26.19Q5.80-26.19 5.11-26.44Q4.41-26.68 3.93-27.10Q3.44-27.52 3.17-28.08Q2.91-28.63 2.91-29.26L2.91-29.26Q2.91-29.90 3.17-30.46Q3.44-31.02 3.93-31.43Q4.41-31.84 5.11-32.08Q5.80-32.32 6.66-32.32L6.66-32.32Q7.54-32.32 8.23-32.08Q8.93-31.84 9.41-31.43Q9.90-31.02 10.17-30.46Q10.43-29.90 10.43-29.26L10.43-29.26Q10.43-28.63 10.17-28.08Q9.90-27.52 9.41-27.10Q8.93-26.68 8.23-26.44Q7.54-26.19 6.66-26.19ZM3.77 0L3.77-23.05L9.55-23.05L9.55 0L3.77 0Z M17.70 0L17.70-30.53L23.89-30.53L34.98-19.39L46.07-30.53L52.27-30.53L52.27 0L46.07 0L46.07-21.95L34.98-11.27L23.89-21.95L23.89 0L17.70 0Z M59.80-12.97L59.80-30.53L66.00-30.53L66.00-13.71Q66.00-11.64 66.56-10.03Q67.13-8.42 68.25-7.30Q69.38-6.19 71.04-5.62Q72.70-5.04 74.90-5.04L74.90-5.04Q77.09-5.04 78.76-5.62Q80.43-6.19 81.55-7.30Q82.68-8.42 83.24-10.03Q83.81-11.64 83.81-13.71L83.81-13.71L83.81-30.53L90-30.53L90-12.97Q90-9.96 88.98-7.50Q87.97-5.04 86.04-3.28Q84.10-1.52 81.30-0.57Q78.50 0.39 74.90 0.39L74.90 0.39Q71.31 0.39 68.51-0.57Q65.70-1.52 63.77-3.28Q61.84-5.04 60.82-7.50Q59.80-9.96 59.80-12.97L59.80-12.97Z M106.74 0L106.74-25.10L95.47-25.10L95.47-30.53L124.20-30.53L124.20-25.10L112.93-25.10L112.93 0L106.74 0Z M129.00-15.35L129.00-15.35Q129.00-18.81 130.27-21.68Q131.54-24.55 133.84-26.61Q136.13-28.67 139.35-29.80Q142.56-30.94 146.46-30.94L146.46-30.94Q150.35-30.94 153.57-29.80Q156.80-28.67 159.09-26.61Q161.39-24.55 162.66-21.68Q163.93-18.81 163.93-15.35L163.93-15.35Q163.93-11.88 162.66-8.97Q161.39-6.07 159.09-3.98Q156.80-1.89 153.57-0.73Q150.35 0.43 146.46 0.43L146.46 0.43Q142.56 0.43 139.35-0.73Q136.13-1.89 133.84-3.98Q131.54-6.07 130.27-8.97Q129.00-11.88 129.00-15.35ZM135.20-15.35L135.20-15.35Q135.20-12.99 136.04-11.09Q136.89-9.20 138.41-7.86Q139.92-6.52 141.98-5.80Q144.04-5.08 146.46-5.08L146.46-5.08Q148.89-5.08 150.95-5.80Q153.01-6.52 154.51-7.86Q156.02-9.20 156.88-11.09Q157.73-12.99 157.73-15.35L157.73-15.35Q157.73-17.71 156.88-19.59Q156.02-21.46 154.51-22.76Q153.01-24.06 150.95-24.75Q148.89-25.43 146.46-25.43L146.46-25.43Q144.04-25.43 141.98-24.75Q139.92-24.06 138.41-22.76Q136.89-21.46 136.04-19.59Q135.20-17.71 135.20-15.35Z M170.80 0L170.80-30.53L176.99-30.53L176.99-5.43L194.75-5.43L194.75 0L170.80 0Z M199.96 0L199.96-30.53L206.19-30.53L206.19 0L199.96 0Z M214.08 0L214.08-30.53L230.39-30.53Q233.38-30.53 235.60-29.89Q237.81-29.26 239.28-28.14Q240.74-27.03 241.46-25.50Q242.17-23.96 242.17-22.19L242.17-22.19Q242.17-19.28 240.33-17.09L240.33-17.09Q242.44-15.84 243.48-13.85Q244.51-11.86 244.51-9.32L244.51-9.32Q244.51-7.19 243.80-5.47Q243.09-3.75 241.63-2.53Q240.18-1.31 237.96-0.65Q235.74 0 232.73 0L232.73 0L214.08 0ZM220.27-18.81L232.77-18.81Q233.57-18.81 234.34-18.75L234.34-18.75Q235.64-20 235.64-21.60L235.64-21.60Q235.64-23.26 234.35-24.17Q233.05-25.08 230.55-25.08L230.55-25.08L220.27-25.08L220.27-18.81ZM220.27-5.39L232.89-5.39Q235.39-5.39 236.69-6.46Q237.99-7.54 237.99-9.49L237.99-9.49Q237.99-11.45 236.69-12.54Q235.39-13.63 232.89-13.63L232.89-13.63L220.27-13.63L220.27-5.39Z"/></g>
</svg>
</g><g opacity="1" transform="rotate(0 359.8941 85.3631)">
<svg width="147.477" height="135.3472" x="359.8941" y="85.3631" version="1.1" preserveAspectRatio="none" viewBox="15.5 22.5 169 155.10000610351562">
  <g transform="matrix(1 0 0 1 0 0)"><g><path d="M184.5 170l-11.3-6.8V22.5H74v28.9c-32.5 1.8-58.5 28.9-58.5 62 0 34.2 27.8 62.1 61.9 62.1 21.7 0 40.7-11.2 51.8-28.2l50.7 30.3 4.6-7.6zm-58.4-34.9l-43.3-25.9v-49c26.8 2.7 47.8 25.5 47.8 53.1.1 7.8-1.5 15.1-4.5 21.8zM74 60v43.8L35.4 80.6C44.4 69 58.3 61.1 74 60zM30.5 88.2l43.5 26v.3h.5l18.9 11.3-60.9 16.1c-5.2-8.2-8.2-18-8.2-28.5-.2-9.1 2.1-17.7 6.2-25.2zm46.9 78.5c-15.5 0-29.4-6.6-39.1-17.2l65.5-17.3-.1-.2 18.1 10.8c-9.6 14.5-25.9 23.9-44.4 23.9zm5.5-115.2v-20h81.3v31.3h-15.1v9h15.1V103h-14.4v9h14.4v45.9l-30.6-18.3c3.7-7.9 5.8-16.8 5.8-26.2-.1-32.5-24.8-59.1-56.5-61.9z" data-color="1" class="icon1"></path></g></g>
</svg>
</g></svg></svg>